<svg id="svg" xmlns="http://www.w3.org/2000/svg" xmlns:xlink="http://www.w3.org/1999/xlink" width="400" height="363.265306122449" viewBox="0, 0, 400,363.265306122449"><g id="svgg"><path id="path0" d="M264.037 0.257 C 264.489 0.344,265.143 0.341,265.490 0.250 C 265.838 0.159,265.468 0.088,264.668 0.092 C 263.869 0.096,263.585 0.170,264.037 0.257 M258.650 1.757 C 257.537 2.289,256.240 3.093,255.766 3.542 C 255.292 3.992,254.695 4.360,254.439 4.360 C 253.783 4.360,246.144 12.030,245.435 13.399 C 245.113 14.022,244.704 14.532,244.527 14.532 C 244.349 14.532,243.701 15.350,243.085 16.350 C 242.470 17.350,241.639 18.449,241.238 18.792 C 240.837 19.136,240.509 19.533,240.509 19.675 C 240.509 20.087,238.224 23.674,237.369 24.605 C 236.574 25.471,236.016 26.885,236.470 26.885 C 236.608 26.885,237.286 25.945,237.976 24.796 C 238.666 23.647,239.354 22.652,239.506 22.586 C 239.658 22.519,239.782 22.246,239.782 21.980 C 239.782 21.714,239.914 21.441,240.076 21.375 C 240.237 21.308,240.921 20.436,241.596 19.437 C 246.524 12.137,253.381 5.291,258.316 2.742 C 260.111 1.815,261.580 0.982,261.580 0.891 C 261.580 0.537,260.585 0.831,258.650 1.757 M270.118 1.141 C 270.518 1.389,270.908 1.546,270.986 1.491 C 271.063 1.436,271.227 1.529,271.349 1.698 C 271.471 1.867,272.307 2.480,273.206 3.060 C 275.692 4.663,279.871 8.871,282.606 12.526 C 287.319 18.822,289.124 21.675,293.300 29.428 C 294.107 30.926,294.904 32.207,295.070 32.274 C 295.236 32.341,295.280 32.546,295.167 32.729 C 295.054 32.911,295.135 33.061,295.346 33.061 C 295.903 33.061,295.101 30.795,294.318 30.154 C 294.196 30.054,293.470 28.706,292.705 27.157 C 291.940 25.609,291.179 24.342,291.015 24.342 C 290.850 24.342,290.541 23.892,290.327 23.342 C 289.787 21.957,288.196 19.176,287.797 18.921 C 287.615 18.805,287.125 18.071,286.709 17.290 C 286.292 16.508,285.544 15.364,285.047 14.746 C 283.547 12.885,281.562 10.178,281.562 9.994 C 281.562 9.326,273.950 2.606,272.116 1.653 C 270.759 0.949,269.134 0.532,270.118 1.141 M235.290 28.132 C 234.963 28.631,234.696 29.195,234.696 29.385 C 234.696 29.575,234.491 29.813,234.242 29.914 C 233.940 30.035,233.928 30.107,234.206 30.126 C 234.436 30.141,234.974 29.562,235.401 28.837 C 236.286 27.337,236.194 26.753,235.290 28.132 M233.155 31.335 C 232.861 31.785,232.513 32.492,232.382 32.906 C 232.251 33.320,231.855 33.974,231.501 34.359 C 230.859 35.059,228.520 39.040,228.520 39.435 C 228.520 39.874,229.307 39.130,229.631 38.384 C 229.817 37.954,230.707 36.458,231.608 35.059 C 233.835 31.602,234.411 30.518,234.020 30.518 C 233.838 30.518,233.449 30.886,233.155 31.335 M295.743 33.477 C 295.732 33.695,298.256 39.233,298.519 39.570 C 298.584 39.653,298.745 39.614,298.876 39.483 C 299.155 39.204,297.929 36.331,297.532 36.331 C 297.384 36.331,297.171 35.963,297.058 35.513 C 296.856 34.708,295.765 33.020,295.743 33.477 M227.935 40.242 C 227.714 40.389,226.918 41.653,226.168 43.052 C 225.417 44.450,224.677 45.677,224.522 45.777 C 224.368 45.876,223.617 47.103,222.855 48.501 C 222.092 49.900,221.282 51.208,221.054 51.408 C 220.827 51.608,220.111 52.732,219.464 53.907 C 218.817 55.082,217.982 56.371,217.609 56.772 C 217.235 57.173,216.671 58.047,216.354 58.715 C 216.037 59.383,215.293 60.460,214.701 61.109 C 214.108 61.757,213.624 62.418,213.624 62.577 C 213.624 62.961,211.787 65.756,211.027 66.529 C 210.698 66.864,209.987 67.890,209.448 68.810 C 208.910 69.729,208.328 70.481,208.155 70.481 C 207.983 70.481,207.409 71.220,206.880 72.122 C 206.351 73.025,205.645 73.965,205.311 74.211 C 204.977 74.458,204.081 75.517,203.321 76.566 C 202.560 77.614,201.737 78.595,201.492 78.745 C 201.247 78.896,200.769 79.428,200.430 79.927 C 199.578 81.185,191.766 89.040,189.702 90.714 C 188.772 91.469,187.684 92.393,187.284 92.768 C 186.885 93.142,185.904 93.863,185.104 94.370 C 184.305 94.877,183.530 95.497,183.381 95.748 C 183.232 95.999,182.210 96.712,181.110 97.333 C 179.102 98.467,178.208 99.670,180.109 98.682 C 186.049 95.593,197.516 84.807,205.456 74.841 C 208.947 70.459,209.991 69.043,209.991 68.692 C 209.991 68.511,210.123 68.308,210.285 68.241 C 210.446 68.174,211.130 67.302,211.805 66.303 C 212.479 65.304,213.136 64.405,213.264 64.305 C 213.668 63.990,221.100 52.508,222.196 50.506 C 222.577 49.810,223.098 49.017,223.354 48.743 C 223.611 48.468,224.164 47.566,224.585 46.738 C 225.005 45.909,225.794 44.578,226.338 43.778 C 227.319 42.337,228.630 39.959,228.438 39.969 C 228.383 39.972,228.157 40.095,227.935 40.242 M299.390 40.872 C 299.390 41.072,299.624 41.644,299.909 42.144 C 300.195 42.643,300.428 42.888,300.428 42.688 C 300.428 42.489,300.195 41.916,299.909 41.417 C 299.624 40.917,299.390 40.672,299.390 40.872 M300.454 43.405 C 300.454 43.561,301.938 46.838,302.173 47.200 C 302.710 48.029,302.508 46.526,301.888 45.085 C 301.234 43.566,300.454 42.652,300.454 43.405 M302.838 48.138 C 303.539 50.354,304.597 52.679,304.903 52.679 C 305.097 52.679,305.156 52.421,305.034 52.105 C 304.913 51.789,304.814 51.392,304.814 51.222 C 304.814 51.053,304.609 50.699,304.360 50.435 C 304.110 50.171,303.614 49.382,303.257 48.683 C 302.900 47.984,302.711 47.738,302.838 48.138 M305.191 53.987 C 305.578 55.006,306.630 56.637,306.630 56.219 C 306.630 55.608,305.432 53.043,305.147 53.043 C 304.973 53.043,304.993 53.468,305.191 53.987 M306.630 56.777 C 306.630 56.862,306.810 57.445,307.029 58.075 C 307.476 59.356,308.279 59.681,307.878 58.418 C 307.656 57.717,306.630 56.369,306.630 56.777 M307.720 59.865 C 307.720 60.020,307.960 60.489,308.252 60.907 C 308.545 61.325,308.681 61.770,308.555 61.896 C 308.429 62.022,308.544 62.125,308.810 62.125 C 309.077 62.125,309.191 62.229,309.065 62.355 C 308.939 62.481,309.007 62.904,309.216 63.294 C 309.957 64.679,309.904 63.654,309.131 61.633 C 308.456 59.869,307.720 58.947,307.720 59.865 M223.781 66.521 C 221.891 69.321,220.182 71.886,219.982 72.219 C 219.782 72.553,219.439 72.993,219.220 73.198 C 219.000 73.402,218.264 74.380,217.585 75.370 C 216.905 76.360,216.079 77.505,215.749 77.913 C 215.419 78.322,213.976 80.127,212.543 81.926 C 206.427 89.599,197.708 98.244,191.281 103.010 C 189.342 104.447,188.351 105.359,188.726 105.359 C 188.894 105.359,189.568 104.950,190.223 104.450 C 190.878 103.951,191.579 103.542,191.781 103.542 C 191.983 103.542,192.399 103.184,192.705 102.746 C 193.012 102.308,193.972 101.450,194.838 100.839 C 195.703 100.227,196.892 99.275,197.479 98.723 C 200.184 96.176,206.808 89.489,208.231 87.870 C 209.099 86.882,210.306 85.549,210.914 84.908 C 211.522 84.267,212.538 82.985,213.172 82.060 C 213.806 81.135,214.576 80.282,214.883 80.164 C 215.190 80.046,215.441 79.764,215.441 79.537 C 215.441 79.310,215.904 78.528,216.470 77.800 C 217.036 77.072,217.603 76.190,217.730 75.840 C 217.857 75.490,218.118 75.204,218.309 75.204 C 218.501 75.204,219.254 74.223,219.982 73.025 C 220.710 71.826,221.427 70.845,221.576 70.845 C 221.724 70.845,222.179 70.232,222.588 69.482 C 224.624 65.748,225.586 64.631,225.091 66.576 C 224.851 67.517,225.097 67.037,226.601 63.624 C 227.949 60.564,227.468 61.059,223.781 66.521 M309.965 64.668 C 310.077 64.968,310.475 66.072,310.847 67.121 C 311.427 68.755,312.080 69.627,312.080 68.768 C 312.080 68.138,310.786 65.163,310.297 64.668 C 309.819 64.184,309.782 64.184,309.965 64.668 M223.970 68.329 C 223.750 69.019,223.972 69.720,224.296 69.361 C 224.681 68.934,224.891 67.575,224.572 67.575 C 224.372 67.575,224.101 67.914,223.970 68.329 M312.097 70.149 C 312.320 70.566,312.574 70.835,312.663 70.746 C 312.917 70.492,312.402 69.391,312.028 69.391 C 311.843 69.391,311.873 69.732,312.097 70.149 M222.923 71.451 C 222.308 73.257,222.380 73.950,223.053 72.692 C 223.276 72.276,223.362 71.935,223.244 71.935 C 223.126 71.935,223.283 71.571,223.594 71.127 C 224.234 70.214,224.313 69.755,223.831 69.755 C 223.650 69.755,223.241 70.518,222.923 71.451 M312.919 71.571 C 313.578 74.229,314.986 76.963,314.986 75.585 C 314.986 75.175,314.180 73.286,313.894 73.025 C 313.784 72.925,313.490 72.434,313.239 71.935 C 312.989 71.435,312.845 71.272,312.919 71.571 M221.783 74.541 C 221.637 75.006,221.410 75.468,221.277 75.568 C 220.859 75.881,219.712 79.234,219.943 79.465 C 220.064 79.586,220.226 79.617,220.302 79.534 C 220.612 79.196,222.352 74.002,222.205 73.855 C 222.118 73.768,221.928 74.077,221.783 74.541 M314.623 76.577 C 314.623 76.732,314.849 77.182,315.125 77.576 C 315.401 77.970,315.635 78.420,315.644 78.575 C 315.741 80.157,317.893 84.059,317.893 82.652 C 317.893 82.352,317.742 82.107,317.558 82.107 C 317.373 82.107,317.032 81.494,316.799 80.745 C 315.672 77.117,314.623 75.108,314.623 76.577 M218.864 81.826 C 218.518 82.871,218.014 83.945,217.745 84.214 C 217.222 84.737,217.080 85.742,217.530 85.737 C 217.679 85.736,218.309 84.428,218.929 82.831 C 219.549 81.234,219.930 79.927,219.776 79.927 C 219.622 79.927,219.211 80.782,218.864 81.826 M317.530 83.766 C 317.530 83.879,317.726 84.329,317.966 84.765 C 318.206 85.201,318.454 85.873,318.518 86.257 C 318.582 86.641,318.769 87.131,318.934 87.347 C 319.100 87.562,319.617 88.842,320.084 90.191 C 320.551 91.540,321.067 92.643,321.230 92.643 C 321.702 92.643,321.572 91.652,321.029 91.108 C 320.755 90.835,320.412 90.210,320.265 89.720 C 319.012 85.529,317.530 82.303,317.530 83.766 M216.360 87.760 C 215.701 89.484,215.807 90.362,216.514 89.041 C 216.737 88.624,216.823 88.283,216.704 88.283 C 216.586 88.283,216.744 87.920,217.055 87.476 C 217.688 86.571,217.774 86.104,217.306 86.104 C 217.134 86.104,216.708 86.849,216.360 87.760 M214.872 91.650 C 214.485 92.496,214.114 93.310,214.048 93.460 C 213.981 93.610,214.088 93.733,214.286 93.733 C 214.625 93.733,215.931 90.469,215.688 90.226 C 215.626 90.164,215.258 90.805,214.872 91.650 M321.163 93.144 C 321.163 93.623,322.332 95.955,322.492 95.795 C 322.781 95.505,321.890 93.006,321.498 93.006 C 321.313 93.006,321.163 93.068,321.163 93.144 M213.481 94.671 C 213.084 95.706,213.273 96.109,213.817 95.389 C 214.111 95.001,214.351 94.552,214.351 94.390 C 214.351 93.870,213.709 94.077,213.481 94.671 M212.592 97.201 C 212.102 98.278,212.025 99.135,212.465 98.619 C 212.993 98.000,213.616 96.276,213.311 96.276 C 213.148 96.276,212.824 96.693,212.592 97.201 M322.645 96.507 C 322.629 96.734,322.855 97.469,323.147 98.142 C 323.438 98.814,323.676 99.119,323.675 98.819 C 323.672 98.148,322.686 95.934,322.645 96.507 M175.840 100.471 C 174.541 101.136,173.296 101.841,173.073 102.036 C 172.850 102.231,171.828 102.751,170.802 103.193 C 169.777 103.634,168.937 104.130,168.937 104.296 C 168.937 104.462,169.387 104.388,169.936 104.134 C 170.486 103.879,171.753 103.293,172.752 102.833 C 174.607 101.979,178.747 99.547,178.747 99.313 C 178.747 99.050,178.149 99.288,175.840 100.471 M211.599 99.681 C 211.189 100.127,209.264 104.949,209.264 105.530 C 209.264 106.321,210.009 104.994,211.068 102.315 C 212.208 99.432,212.315 98.901,211.599 99.681 M323.850 100.125 C 323.972 100.443,324.171 101.097,324.292 101.578 C 324.497 102.395,325.159 102.827,325.159 102.143 C 325.159 101.399,324.328 99.546,323.995 99.546 C 323.793 99.546,323.728 99.806,323.850 100.125 M324.796 102.999 C 324.796 103.099,325.123 103.792,325.522 104.537 C 326.319 106.024,326.474 105.751,325.850 103.960 C 325.519 103.010,324.796 102.351,324.796 102.999 M167.053 104.752 C 166.787 105.018,166.366 105.168,166.118 105.085 C 165.870 105.003,165.668 105.112,165.668 105.328 C 165.668 105.545,165.779 105.722,165.914 105.722 C 166.514 105.722,168.574 104.822,168.574 104.559 C 168.574 104.097,167.582 104.223,167.053 104.752 M187.007 106.014 C 186.460 106.345,186.013 106.743,186.013 106.896 C 186.013 107.050,185.846 107.175,185.642 107.175 C 185.313 107.175,182.488 108.871,182.016 109.352 C 181.916 109.454,181.601 109.587,181.315 109.649 C 181.030 109.711,180.376 110.051,179.862 110.405 C 179.348 110.759,177.825 111.521,176.476 112.099 C 174.428 112.977,173.396 113.715,174.217 113.715 C 174.621 113.715,177.095 112.584,177.281 112.314 C 177.388 112.159,178.824 111.404,180.472 110.636 C 182.121 109.869,183.470 109.129,183.470 108.992 C 183.470 108.855,184.164 108.383,185.014 107.944 C 186.901 106.968,188.426 105.835,188.183 105.591 C 188.083 105.491,187.554 105.682,187.007 106.014 M163.215 106.175 C 162.566 106.383,162.035 106.685,162.035 106.846 C 162.035 107.007,162.566 106.923,163.215 106.659 C 163.865 106.395,164.641 106.090,164.941 105.980 C 165.983 105.597,164.490 105.766,163.215 106.175 M208.728 106.785 C 208.596 107.199,208.336 107.539,208.150 107.539 C 207.964 107.539,207.811 107.784,207.811 108.084 C 207.811 108.383,207.939 108.629,208.095 108.629 C 208.411 108.629,209.333 106.397,209.110 106.173 C 209.031 106.095,208.860 106.370,208.728 106.785 M326.504 106.755 C 326.907 108.519,327.092 108.992,327.378 108.992 C 327.556 108.992,327.702 108.747,327.702 108.447 C 327.702 108.147,327.570 107.902,327.409 107.902 C 327.248 107.902,326.953 107.534,326.754 107.084 C 326.555 106.635,326.443 106.487,326.504 106.755 M156.222 108.007 C 155.522 108.225,154.863 108.528,154.756 108.682 C 154.649 108.836,153.668 109.359,152.576 109.844 C 151.484 110.329,149.609 111.449,148.411 112.333 C 147.212 113.218,145.921 114.114,145.543 114.326 C 144.441 114.942,142.069 117.158,136.282 122.979 C 129.194 130.109,128.101 131.252,127.884 131.758 C 127.784 131.991,127.127 132.809,126.425 133.575 C 125.722 134.341,124.496 135.786,123.700 136.785 C 122.904 137.784,121.723 139.173,121.075 139.873 C 120.427 140.572,119.896 141.347,119.894 141.595 C 119.892 141.844,119.555 142.252,119.145 142.504 C 118.735 142.755,117.827 143.819,117.127 144.868 C 116.428 145.917,115.715 146.776,115.543 146.776 C 115.371 146.776,114.724 147.599,114.104 148.605 C 113.485 149.612,112.736 150.528,112.438 150.642 C 112.141 150.756,111.898 151.009,111.898 151.204 C 111.898 151.399,111.303 152.284,110.575 153.172 C 109.848 154.060,109.333 154.868,109.432 154.967 C 109.531 155.065,110.109 154.530,110.716 153.777 C 114.847 148.651,121.030 140.925,122.231 139.387 C 123.019 138.379,123.918 137.286,124.230 136.958 C 124.541 136.631,125.531 135.479,126.431 134.398 C 137.544 121.041,149.145 111.078,156.222 108.815 C 157.321 108.464,158.375 108.033,158.565 107.857 C 159.026 107.432,157.829 107.509,156.222 108.007 M206.942 110.452 C 206.251 112.179,206.242 112.262,206.743 112.262 C 206.954 112.262,207.033 112.109,206.918 111.923 C 206.803 111.737,206.859 111.492,207.043 111.379 C 207.510 111.090,208.203 108.992,207.832 108.992 C 207.664 108.992,207.264 109.649,206.942 110.452 M327.904 111.262 C 328.211 112.259,328.364 112.447,328.644 112.168 C 328.957 111.855,328.443 110.445,328.016 110.445 C 327.807 110.445,327.760 110.792,327.904 111.262 M204.814 115.465 C 203.335 118.540,203.259 118.801,203.836 118.801 C 204.048 118.801,204.128 118.652,204.016 118.469 C 203.903 118.286,203.934 118.082,204.085 118.015 C 204.459 117.849,206.723 112.624,206.419 112.628 C 206.285 112.630,205.563 113.907,204.814 115.465 M171.036 114.518 L 169.846 115.169 170.936 114.937 C 172.550 114.592,174.141 113.742,173.034 113.815 C 172.590 113.844,171.690 114.161,171.036 114.518 M329.155 114.107 C 329.155 114.582,331.238 120.534,331.607 121.114 C 331.751 121.341,331.871 121.635,331.875 121.768 C 331.884 122.162,332.425 122.588,332.425 122.202 C 332.425 121.592,330.871 117.175,330.589 116.985 C 330.441 116.885,330.134 116.108,329.906 115.259 C 329.512 113.796,329.155 113.248,329.155 114.107 M167.575 115.621 C 166.535 115.955,165.925 116.625,166.667 116.619 C 167.486 116.613,169.664 115.810,169.664 115.514 C 169.664 115.094,169.132 115.121,167.575 115.621 M162.943 117.153 C 162.343 117.428,162.098 117.663,162.398 117.677 C 163.296 117.717,164.578 117.285,164.578 116.942 C 164.578 116.514,164.244 116.557,162.943 117.153 M158.856 118.315 C 158.301 118.539,158.253 119.164,158.791 119.164 C 159.005 119.164,159.425 118.919,159.725 118.619 C 160.290 118.055,159.867 117.907,158.856 118.315 M156.312 119.628 C 155.522 119.990,155.189 120.618,155.789 120.618 C 156.236 120.618,157.517 119.610,157.311 119.421 C 157.211 119.329,156.762 119.423,156.312 119.628 M202.583 120.625 C 201.876 122.391,201.835 122.844,202.469 121.879 C 203.250 120.690,203.820 119.164,203.483 119.164 C 203.309 119.164,202.904 119.822,202.583 120.625 M151.570 123.009 C 146.216 127.293,133.355 140.685,130.839 144.596 C 130.518 145.095,130.061 145.668,129.823 145.867 C 129.585 146.067,128.302 147.620,126.972 149.319 C 125.642 151.017,124.278 152.734,123.942 153.134 C 120.729 156.950,120.608 156.442,125.626 160.197 C 127.767 161.799,129.682 163.238,129.882 163.395 C 131.583 164.732,137.626 169.230,138.056 169.478 C 138.356 169.651,137.947 169.110,137.148 168.276 C 136.349 167.441,135.516 166.758,135.296 166.758 C 135.077 166.758,134.309 166.185,133.589 165.486 C 132.869 164.787,132.172 164.214,132.041 164.214 C 131.910 164.214,131.184 163.724,130.427 163.124 C 129.670 162.525,128.972 162.035,128.876 162.035 C 128.780 162.035,128.077 161.462,127.313 160.763 C 126.550 160.064,125.752 159.491,125.541 159.491 C 125.330 159.491,124.679 158.985,124.094 158.366 C 123.510 157.747,122.715 157.123,122.328 156.980 C 121.678 156.739,121.669 156.675,122.217 156.127 C 123.243 155.102,125.341 152.235,125.341 151.859 C 125.341 151.661,125.497 151.499,125.687 151.499 C 125.878 151.499,126.616 150.722,127.327 149.773 C 128.713 147.922,130.033 146.312,131.567 144.600 C 132.095 144.012,133.072 142.830,133.740 141.974 C 134.408 141.118,135.366 139.985,135.869 139.456 C 136.373 138.926,137.766 137.379,138.965 136.018 C 142.607 131.882,149.770 124.916,151.862 123.476 C 153.497 122.351,155.338 120.618,154.898 120.618 C 154.712 120.618,153.214 121.694,151.570 123.009 M201.175 123.622 C 200.520 124.429,200.337 125.341,200.829 125.341 C 201.100 125.341,202.083 123.124,201.895 122.937 C 201.845 122.887,201.521 123.195,201.175 123.622 M332.794 124.037 C 332.781 124.803,334.037 128.247,334.329 128.247 C 334.505 128.247,334.557 128.393,334.447 128.572 C 334.337 128.750,334.522 129.527,334.858 130.297 C 335.194 131.068,335.479 131.807,335.491 131.941 C 335.527 132.333,336.058 132.759,336.058 132.396 C 336.058 131.690,334.117 126.242,333.824 126.128 C 333.654 126.061,333.512 125.734,333.509 125.401 C 333.504 124.778,332.804 123.444,332.794 124.037 M199.060 128.520 C 198.597 129.668,198.005 130.825,197.746 131.089 C 197.203 131.642,197.127 132.243,197.600 132.243 C 197.778 132.243,198.366 131.140,198.905 129.791 C 199.444 128.442,200.053 127.134,200.259 126.885 C 200.506 126.586,200.509 126.431,200.268 126.431 C 200.067 126.431,199.524 127.371,199.060 128.520 M196.050 134.814 C 195.523 136.028,194.848 137.266,194.549 137.565 C 193.981 138.132,193.807 139.148,194.278 139.143 C 194.492 139.141,197.017 134.382,197.578 132.922 C 198.155 131.422,196.786 133.116,196.050 134.814 M336.421 134.275 C 336.421 134.984,337.681 138.420,337.941 138.420 C 338.332 138.420,338.318 138.232,337.797 136.464 C 337.407 135.140,336.421 133.572,336.421 134.275 M193.324 140.465 C 192.714 141.803,193.007 141.884,193.773 140.588 C 194.123 139.995,194.263 139.510,194.084 139.510 C 193.905 139.510,193.563 139.939,193.324 140.465 M338.607 140.487 C 338.604 140.925,338.765 141.384,338.965 141.508 C 339.427 141.794,339.427 140.952,338.965 140.236 C 338.678 139.793,338.611 139.840,338.607 140.487 M192.016 143.479 C 191.884 143.893,191.624 144.233,191.438 144.233 C 191.251 144.233,191.099 144.396,191.099 144.596 C 191.099 144.796,191.236 144.959,191.404 144.959 C 191.760 144.959,192.657 143.126,192.417 142.887 C 192.328 142.797,192.148 143.064,192.016 143.479 M339.920 144.051 C 339.989 144.450,340.047 144.900,340.050 145.050 C 340.059 145.582,340.781 145.313,340.781 144.777 C 340.781 144.478,340.630 144.233,340.444 144.233 C 340.259 144.233,340.038 144.028,339.952 143.778 C 339.866 143.529,339.852 143.651,339.920 144.051 M340.562 146.264 C 340.684 146.583,340.883 147.237,341.004 147.718 C 341.209 148.535,341.871 148.967,341.871 148.283 C 341.871 147.539,341.040 145.686,340.707 145.686 C 340.505 145.686,340.440 145.946,340.562 146.264 M189.879 147.366 C 189.023 149.161,189.289 149.232,190.298 147.478 C 190.751 146.692,190.983 146.049,190.814 146.049 C 190.645 146.049,190.224 146.641,189.879 147.366 M341.508 149.297 C 341.508 149.485,341.659 149.732,341.843 149.846 C 342.028 149.960,342.288 150.554,342.423 151.165 C 342.557 151.777,342.744 152.200,342.839 152.105 C 343.102 151.842,342.162 148.955,341.814 148.955 C 341.645 148.955,341.508 149.109,341.508 149.297 M188.322 150.338 C 188.105 150.477,187.330 151.954,186.600 153.620 C 185.870 155.287,185.045 156.878,184.765 157.158 C 184.486 157.437,183.729 158.812,183.083 160.213 C 182.437 161.615,181.796 162.761,181.658 162.761 C 181.274 162.761,180.502 164.641,180.781 164.897 C 180.916 165.021,181.093 164.959,181.176 164.759 C 181.258 164.559,181.875 163.415,182.547 162.216 C 187.701 153.022,189.315 149.701,188.322 150.338 M343.074 153.076 C 343.213 153.445,343.426 154.140,343.547 154.620 C 343.668 155.101,343.930 155.495,344.130 155.495 C 344.646 155.495,344.138 153.712,343.417 152.999 C 342.865 152.451,342.839 152.457,343.074 153.076 M107.902 155.107 C 107.902 155.294,107.563 155.554,107.148 155.685 C 106.733 155.817,106.461 155.992,106.544 156.075 C 106.627 156.157,107.211 156.045,107.843 155.824 C 109.034 155.409,109.400 154.768,108.447 154.768 C 108.147 154.768,107.902 154.921,107.902 155.107 M344.051 156.016 C 344.051 156.103,344.242 156.635,344.475 157.197 C 344.708 157.760,344.912 158.329,344.929 158.462 C 344.975 158.833,345.504 159.289,345.504 158.958 C 345.504 158.221,344.630 155.858,344.357 155.858 C 344.188 155.858,344.051 155.929,344.051 156.016 M102.883 157.169 C 100.981 157.885,98.957 159.128,99.692 159.128 C 100.127 159.128,105.563 156.872,105.886 156.558 C 106.445 156.013,105.371 156.231,102.883 157.169 M96.367 159.941 C 95.318 160.343,94.460 160.815,94.460 160.990 C 94.460 161.462,94.791 161.368,97.184 160.218 C 99.679 159.019,99.196 158.856,96.367 159.941 M345.609 159.855 C 345.885 161.497,347.103 164.941,347.408 164.941 C 347.845 164.941,347.406 162.993,346.930 162.822 C 346.745 162.755,346.587 162.428,346.578 162.095 C 346.569 161.762,346.326 160.999,346.039 160.400 C 345.752 159.800,345.559 159.555,345.609 159.855 M93.017 161.294 C 92.723 161.480,92.577 161.726,92.692 161.842 C 92.979 162.128,94.096 161.672,94.096 161.269 C 94.096 160.855,93.696 160.864,93.017 161.294 M89.560 162.824 C 87.588 163.602,87.341 163.756,87.621 164.036 C 87.723 164.138,88.853 163.737,90.134 163.145 C 92.741 161.939,92.352 161.722,89.560 162.824 M85.559 164.298 C 84.959 164.512,84.387 164.799,84.287 164.936 C 84.187 165.073,83.778 165.387,83.379 165.635 L 82.652 166.086 83.379 165.838 C 86.442 164.795,87.193 164.468,87.193 164.180 C 87.193 163.780,86.962 163.796,85.559 164.298 M112.534 164.637 C 111.464 165.028,111.182 165.668,112.080 165.668 C 112.380 165.668,112.625 165.522,112.625 165.343 C 112.625 164.771,113.862 164.519,114.250 165.012 C 114.455 165.273,115.597 166.140,116.787 166.939 C 117.977 167.738,119.357 168.768,119.855 169.227 C 120.353 169.685,121.382 170.410,122.142 170.837 C 122.902 171.265,123.524 171.746,123.524 171.906 C 123.524 172.067,124.219 172.628,125.068 173.154 C 125.917 173.679,126.939 174.419,127.339 174.798 C 127.738 175.176,128.963 176.086,130.059 176.819 C 131.156 177.552,132.464 178.538,132.966 179.012 C 133.468 179.485,134.491 180.221,135.241 180.648 C 135.990 181.074,136.603 181.559,136.603 181.724 C 136.603 181.890,137.502 182.601,138.601 183.304 C 139.700 184.007,140.599 184.705,140.599 184.856 C 140.599 185.006,141.131 185.437,141.780 185.813 C 142.905 186.465,147.386 189.847,149.319 191.504 C 149.818 191.932,151.004 192.766,151.953 193.357 C 152.902 193.948,153.678 194.565,153.678 194.729 C 153.678 194.892,154.407 195.453,155.297 195.975 C 156.187 196.496,157.127 197.217,157.386 197.577 C 157.645 197.937,158.155 198.343,158.521 198.479 C 159.119 198.703,159.074 198.838,158.067 199.846 C 157.451 200.461,156.948 201.160,156.948 201.400 C 156.948 201.640,156.423 202.404,155.780 203.098 C 155.138 203.792,154.089 205.112,153.450 206.031 C 152.811 206.950,151.703 208.339,150.987 209.119 C 150.271 209.898,149.685 210.731,149.684 210.969 C 149.683 211.208,149.334 211.647,148.909 211.945 C 148.483 212.243,147.625 213.192,147.000 214.054 C 146.376 214.917,145.375 216.135,144.776 216.762 C 144.178 217.390,142.788 218.912,141.689 220.145 C 136.123 226.393,133.519 228.817,131.347 229.774 C 130.155 230.299,129.093 230.850,128.986 230.999 C 128.879 231.148,127.405 231.887,125.710 232.643 C 124.015 233.399,122.544 234.136,122.441 234.280 C 122.337 234.425,121.190 235.006,119.891 235.573 C 117.408 236.655,116.724 237.100,117.046 237.421 C 117.355 237.730,133.370 229.421,134.855 228.181 C 137.236 226.194,147.554 214.566,151.603 209.308 C 152.160 208.584,153.059 207.434,153.601 206.751 C 155.801 203.980,159.491 198.950,159.491 198.724 C 159.491 198.352,152.595 193.073,129.700 175.922 C 123.206 171.056,117.644 166.882,117.341 166.644 C 113.986 164.022,114.094 164.067,112.534 164.637 M109.890 165.806 C 109.496 166.082,109.041 166.305,108.880 166.301 C 108.426 166.290,104.613 167.950,104.758 168.095 C 104.991 168.327,111.172 165.941,111.172 165.619 C 111.172 165.164,110.711 165.231,109.890 165.806 M179.432 166.848 C 179.001 167.698,178.525 168.474,178.374 168.574 C 178.222 168.674,177.581 169.775,176.949 171.021 C 176.316 172.267,175.544 173.542,175.231 173.854 C 174.919 174.166,174.754 174.512,174.864 174.622 C 175.214 174.972,175.632 174.497,176.567 172.691 C 177.066 171.725,177.576 170.854,177.700 170.754 C 177.824 170.654,178.355 169.755,178.881 168.756 C 179.407 167.757,180.102 166.571,180.426 166.122 C 180.773 165.641,180.850 165.304,180.615 165.304 C 180.395 165.304,179.862 165.999,179.432 166.848 M81.017 166.394 C 80.533 166.707,80.533 166.746,81.017 166.746 C 81.317 166.746,81.807 166.588,82.107 166.394 C 82.592 166.081,82.592 166.042,82.107 166.042 C 81.807 166.042,81.317 166.200,81.017 166.394 M347.886 167.212 C 348.193 168.209,348.346 168.396,348.625 168.117 C 348.938 167.804,348.425 166.394,347.998 166.394 C 347.789 166.394,347.742 166.741,347.886 167.212 M78.310 167.334 C 77.520 167.624,76.785 167.997,76.675 168.164 C 76.566 168.332,75.852 168.672,75.089 168.921 C 74.326 169.170,73.771 169.441,73.854 169.525 C 74.102 169.773,80.291 167.415,80.291 167.072 C 80.291 166.666,80.047 166.698,78.310 167.334 M103.088 168.461 C 102.433 168.632,102.192 169.301,102.786 169.301 C 103.415 169.301,104.269 168.860,104.269 168.535 C 104.269 168.196,104.135 168.188,103.088 168.461 M349.081 170.189 C 349.401 171.077,349.719 171.747,349.788 171.677 C 349.998 171.467,349.041 168.574,348.761 168.574 C 348.618 168.574,348.762 169.301,349.081 170.189 M99.728 170.014 C 98.529 170.601,97.664 171.089,97.807 171.099 C 98.423 171.142,102.089 169.580,102.089 169.275 C 102.089 168.834,102.227 168.790,99.728 170.014 M71.662 170.107 C 70.707 170.568,70.541 171.320,71.480 170.933 C 71.830 170.789,72.402 170.589,72.752 170.489 C 73.478 170.280,73.620 169.651,72.934 169.689 C 72.684 169.702,72.112 169.891,71.662 170.107 M138.785 169.936 C 138.786 170.086,140.130 171.190,141.770 172.389 C 143.410 173.588,146.441 175.836,148.506 177.384 C 150.570 178.933,152.415 180.200,152.605 180.200 C 152.796 180.200,152.952 180.342,152.952 180.515 C 152.952 180.688,153.638 181.284,154.477 181.839 C 155.315 182.394,156.174 182.997,156.384 183.178 C 156.594 183.360,158.719 184.966,161.105 186.746 C 166.107 190.478,165.578 190.529,168.352 186.050 C 169.417 184.331,170.819 182.139,171.469 181.178 C 172.118 180.218,172.567 179.348,172.465 179.247 C 172.233 179.014,170.754 180.576,170.754 181.054 C 170.754 181.438,168.733 184.705,167.849 185.750 C 167.548 186.105,166.967 186.994,166.557 187.724 C 165.589 189.448,165.266 189.518,163.997 188.274 C 163.417 187.706,162.452 186.944,161.853 186.581 C 161.253 186.218,160.436 185.609,160.036 185.229 C 159.637 184.848,158.247 183.848,156.948 183.007 C 155.649 182.165,154.463 181.284,154.312 181.048 C 154.161 180.812,153.425 180.252,152.677 179.802 C 151.929 179.352,150.758 178.440,150.076 177.775 C 149.393 177.111,148.641 176.567,148.406 176.567 C 148.170 176.567,147.388 175.995,146.668 175.295 C 145.948 174.596,145.251 174.024,145.120 174.024 C 144.989 174.024,144.263 173.533,143.506 172.934 C 142.749 172.334,142.041 171.844,141.932 171.844 C 141.823 171.844,141.197 171.353,140.541 170.754 C 139.362 169.677,138.781 169.406,138.785 169.936 M69.755 171.106 C 69.755 171.299,69.510 171.364,69.210 171.249 C 68.910 171.134,68.665 171.203,68.665 171.402 C 68.665 171.602,68.237 171.872,67.714 172.004 C 67.191 172.135,66.836 172.316,66.925 172.405 C 67.189 172.668,70.481 171.444,70.481 171.083 C 70.481 170.902,70.318 170.754,70.118 170.754 C 69.918 170.754,69.755 170.912,69.755 171.106 M96.185 171.368 C 95.836 171.459,95.550 171.685,95.550 171.870 C 95.550 172.384,96.263 172.272,96.873 171.662 C 97.425 171.110,97.329 171.069,96.185 171.368 M93.824 172.297 C 92.732 172.647,92.190 173.297,92.989 173.297 C 93.595 173.297,95.186 172.466,95.186 172.149 C 95.186 171.981,95.145 171.860,95.095 171.881 C 95.045 171.901,94.473 172.088,93.824 172.297 M64.759 173.014 C 64.310 173.231,63.942 173.538,63.942 173.697 C 63.942 174.054,66.047 173.349,66.325 172.898 C 66.594 172.463,65.776 172.523,64.759 173.014 M91.190 173.474 C 90.690 173.756,89.260 174.353,88.011 174.800 C 86.015 175.513,85.069 176.203,86.086 176.203 C 86.524 176.203,88.405 175.384,88.647 175.088 C 88.747 174.965,89.605 174.572,90.554 174.213 C 91.503 173.855,92.280 173.420,92.280 173.248 C 92.280 172.855,92.285 172.854,91.190 173.474 M350.227 173.433 C 350.227 173.608,351.256 176.580,351.564 177.293 C 351.693 177.593,351.813 177.947,351.831 178.081 C 351.877 178.443,352.407 178.912,352.407 178.591 C 352.407 177.790,350.835 173.297,350.555 173.297 C 350.375 173.297,350.227 173.358,350.227 173.433 M61.950 174.111 C 61.354 174.327,60.619 174.754,60.315 175.061 C 59.831 175.550,59.830 175.593,60.309 175.417 C 60.609 175.307,61.467 174.997,62.216 174.729 C 62.965 174.460,63.579 174.110,63.579 173.951 C 63.579 173.589,63.317 173.615,61.950 174.111 M173.766 176.294 C 173.385 176.944,172.957 177.784,172.814 178.162 C 172.379 179.311,173.391 178.261,174.332 176.587 C 175.310 174.847,174.777 174.570,173.766 176.294 M57.947 176.035 C 57.039 176.472,57.009 176.523,57.766 176.338 C 58.795 176.086,59.952 175.496,59.401 175.504 C 59.201 175.507,58.547 175.746,57.947 176.035 M84.559 176.115 C 84.210 176.193,83.924 176.408,83.924 176.593 C 83.924 177.019,84.318 177.014,85.003 176.581 C 85.656 176.168,85.422 175.923,84.559 176.115 M54.405 177.196 C 53.201 177.691,52.347 178.720,53.497 178.292 C 53.747 178.199,54.564 177.903,55.313 177.635 C 56.063 177.367,56.676 177.017,56.676 176.857 C 56.676 176.446,55.980 176.550,54.405 177.196 M80.926 177.751 C 79.777 178.176,78.837 178.656,78.837 178.817 C 78.837 179.284,79.829 179.156,80.366 178.620 C 80.635 178.350,81.464 177.929,82.208 177.683 C 82.952 177.438,83.560 177.168,83.560 177.084 C 83.560 176.829,83.111 176.943,80.926 177.751 M51.045 178.941 C 50.136 179.379,50.106 179.429,50.863 179.244 C 51.892 178.992,53.049 178.403,52.498 178.411 C 52.298 178.414,51.644 178.652,51.045 178.941 M76.898 179.335 C 76.331 179.642,75.958 179.984,76.069 180.095 C 76.346 180.373,78.474 179.462,78.474 179.066 C 78.474 178.621,78.095 178.686,76.898 179.335 M47.054 180.262 C 46.058 180.655,45.159 181.107,45.056 181.266 C 44.953 181.425,44.488 181.674,44.023 181.819 C 43.559 181.964,43.252 182.156,43.342 182.246 C 43.542 182.446,49.095 180.275,49.573 179.809 C 50.117 179.280,49.063 179.469,47.054 180.262 M73.388 180.847 C 71.809 181.593,71.776 181.616,71.980 181.820 C 72.072 181.912,72.958 181.590,73.948 181.105 C 74.939 180.619,75.504 180.228,75.204 180.234 C 74.905 180.241,74.087 180.517,73.388 180.847 M352.776 180.350 C 352.764 181.068,354.010 184.559,354.278 184.559 C 354.435 184.559,354.470 184.805,354.355 185.104 C 354.240 185.404,354.327 185.649,354.548 185.649 C 355.050 185.649,355.048 185.517,354.529 183.784 C 354.298 183.012,353.971 182.380,353.803 182.380 C 353.634 182.380,353.494 182.094,353.491 181.744 C 353.486 181.101,352.786 179.737,352.776 180.350 M70.027 182.125 C 69.063 182.506,68.664 183.106,69.374 183.106 C 69.980 183.106,71.571 182.275,71.571 181.958 C 71.571 181.587,71.320 181.614,70.027 182.125 M41.144 182.823 C 40.695 183.040,40.327 183.352,40.327 183.517 C 40.327 183.824,42.048 183.205,42.670 182.674 C 43.168 182.250,42.121 182.352,41.144 182.823 M67.292 183.347 C 66.637 183.669,66.161 183.993,66.234 184.066 C 66.473 184.305,68.665 183.407,68.665 183.071 C 68.665 182.657,68.708 182.649,67.292 183.347 M36.149 184.949 C 32.906 186.568,33.059 186.587,37.148 185.074 C 38.697 184.501,39.964 183.905,39.964 183.751 C 39.964 183.215,39.042 183.505,36.149 184.949 M63.669 184.843 C 62.261 185.384,61.617 186.013,62.472 186.013 C 63.010 186.013,64.797 185.164,65.330 184.655 C 65.946 184.067,65.581 184.108,63.669 184.843 M60.127 186.376 C 58.884 187.199,58.991 187.271,60.618 186.704 C 61.247 186.484,61.762 186.157,61.762 185.977 C 61.762 185.477,61.323 185.584,60.127 186.376 M30.341 187.165 C 28.356 187.949,28.121 188.097,28.411 188.387 C 28.662 188.638,32.617 187.163,32.894 186.716 C 33.203 186.215,32.382 186.360,30.341 187.165 M56.767 187.707 C 55.917 188.007,55.223 188.414,55.223 188.611 C 55.223 188.974,56.700 188.660,57.039 188.224 C 57.139 188.096,57.629 187.802,58.129 187.571 C 59.415 186.977,58.598 187.058,56.767 187.707 M355.217 187.375 C 355.140 187.525,355.452 188.547,355.911 189.646 C 356.891 191.996,356.989 191.796,356.196 189.066 C 355.627 187.109,355.482 186.858,355.217 187.375 M53.315 189.028 C 52.351 189.409,51.951 190.009,52.662 190.009 C 53.268 190.009,54.859 189.178,54.859 188.861 C 54.859 188.490,54.608 188.517,53.315 189.028 M23.342 190.095 C 21.504 190.800,20.580 191.782,22.252 191.253 C 23.703 190.793,26.158 189.677,26.158 189.477 C 26.158 189.150,25.338 189.330,23.342 190.095 M50.045 190.476 C 48.460 191.172,47.800 191.826,48.683 191.826 C 48.883 191.826,49.046 191.688,49.046 191.520 C 49.046 191.352,49.700 191.018,50.500 190.779 C 51.299 190.539,51.953 190.186,51.953 189.994 C 51.953 189.803,51.912 189.662,51.862 189.682 C 51.812 189.702,50.995 190.059,50.045 190.476 M20.345 191.377 C 20.345 191.530,19.528 191.945,18.529 192.300 C 17.530 192.655,16.712 193.088,16.712 193.263 C 16.712 193.438,17.693 193.147,18.892 192.617 C 20.876 191.741,21.643 191.099,20.708 191.099 C 20.509 191.099,20.345 191.224,20.345 191.377 M46.412 191.934 C 45.448 192.315,45.049 192.916,45.759 192.916 C 46.366 192.916,47.956 192.084,47.956 191.767 C 47.956 191.396,47.705 191.424,46.412 191.934 M43.768 193.049 C 43.374 193.322,42.030 193.916,40.781 194.369 C 39.532 194.822,38.510 195.352,38.510 195.546 C 38.510 195.741,38.771 195.800,39.089 195.678 C 39.407 195.556,40.061 195.357,40.542 195.236 C 41.023 195.115,41.417 194.884,41.417 194.722 C 41.417 194.560,42.234 194.156,43.233 193.824 C 44.233 193.492,45.050 193.070,45.050 192.886 C 45.050 192.415,44.602 192.471,43.768 193.049 M357.130 193.032 C 357.130 193.366,358.402 196.816,358.821 197.618 C 359.503 198.926,359.428 198.323,358.548 195.424 C 357.959 193.487,357.130 192.088,357.130 193.032 M14.986 193.519 C 14.484 193.722,14.362 194.369,14.826 194.369 C 14.988 194.369,15.437 194.129,15.825 193.835 C 16.542 193.293,16.028 193.099,14.986 193.519 M12.988 194.256 C 12.639 194.347,12.352 194.543,12.352 194.692 C 12.352 194.840,11.290 195.336,9.991 195.795 C 8.692 196.253,7.629 196.774,7.629 196.952 C 7.629 197.409,8.078 197.353,8.911 196.793 C 9.305 196.528,10.649 195.936,11.898 195.477 C 14.408 194.556,15.188 193.681,12.988 194.256 M36.854 195.992 C 36.466 196.285,36.340 196.531,36.573 196.537 C 37.264 196.556,38.147 196.133,38.147 195.783 C 38.147 195.307,37.655 195.387,36.854 195.992 M33.607 197.324 C 31.616 198.131,31.394 198.273,31.677 198.555 C 31.781 198.660,32.830 198.258,34.008 197.662 C 36.467 196.417,36.265 196.247,33.607 197.324 M5.540 197.355 C 4.862 197.683,4.395 198.365,4.850 198.365 C 5.408 198.365,7.266 197.500,7.266 197.240 C 7.266 196.814,6.566 196.861,5.540 197.355 M2.271 198.969 C 1.421 199.270,0.727 199.660,0.727 199.837 C 0.727 200.193,1.319 200.006,3.250 199.040 C 4.813 198.258,4.370 198.226,2.271 198.969 M30.064 198.616 C 29.408 198.787,29.168 199.455,29.761 199.455 C 30.390 199.455,31.244 199.014,31.244 198.690 C 31.244 198.350,31.110 198.342,30.064 198.616 M359.565 199.398 C 359.968 201.163,360.152 201.635,360.439 201.635 C 360.617 201.635,360.763 201.390,360.763 201.090 C 360.763 200.790,360.631 200.545,360.470 200.545 C 360.309 200.545,360.014 200.177,359.815 199.728 C 359.616 199.278,359.503 199.130,359.565 199.398 M27.660 199.685 C 26.150 200.344,26.437 200.819,27.963 200.186 C 28.763 199.855,29.677 198.892,28.974 199.121 C 28.924 199.138,28.332 199.391,27.660 199.685 M0.042 200.184 C -0.012 200.885,2.133 202.859,3.814 203.657 C 4.528 203.996,5.275 204.578,5.475 204.952 C 5.675 205.326,6.010 205.631,6.220 205.631 C 6.543 205.631,9.607 207.605,10.173 208.176 C 10.625 208.634,12.993 210.236,13.896 210.695 C 14.446 210.975,14.896 211.324,14.896 211.471 C 14.896 211.618,15.648 212.179,16.567 212.718 C 17.487 213.257,18.513 213.967,18.848 214.297 C 19.845 215.277,22.575 216.964,22.801 216.739 C 23.054 216.486,23.219 216.623,20.345 214.697 C 19.046 213.827,17.673 212.826,17.293 212.473 C 16.913 212.121,16.463 211.918,16.294 212.023 C 16.124 212.128,15.985 212.072,15.985 211.899 C 15.985 211.540,12.864 209.264,12.372 209.264 C 12.195 209.264,11.995 209.128,11.929 208.961 C 11.808 208.658,10.988 208.064,4.072 203.270 C 2.055 201.871,0.332 200.481,0.244 200.182 C 0.103 199.699,0.079 199.700,0.042 200.184 M23.342 201.509 C 22.094 202.020,21.072 202.555,21.072 202.697 C 21.072 202.991,25.660 206.358,26.060 206.358 C 26.520 206.358,23.961 204.188,22.769 203.567 L 21.617 202.967 22.888 202.445 C 23.588 202.158,24.242 201.813,24.342 201.678 C 24.441 201.543,24.932 201.244,25.431 201.014 C 27.161 200.215,25.603 200.584,23.342 201.509 M360.400 202.156 C 360.400 202.243,360.588 202.774,360.818 203.337 C 361.049 203.899,361.295 204.658,361.365 205.023 C 361.528 205.866,362.912 208.834,362.930 208.378 C 362.957 207.670,360.964 201.998,360.688 201.998 C 360.529 201.998,360.400 202.069,360.400 202.156 M26.521 206.683 C 26.521 206.862,27.380 207.557,28.429 208.226 C 29.478 208.896,30.581 209.642,30.881 209.886 C 31.181 210.129,33.306 211.644,35.604 213.253 C 40.802 216.891,40.667 216.796,43.960 219.146 C 45.459 220.216,49.137 222.790,52.134 224.867 C 55.132 226.944,57.952 228.971,58.401 229.372 C 58.851 229.772,59.215 229.948,59.211 229.764 C 59.199 229.227,53.571 224.886,52.889 224.886 C 52.794 224.886,52.259 224.461,51.699 223.942 C 51.139 223.422,50.197 222.746,49.605 222.439 C 49.013 222.132,48.060 221.413,47.488 220.841 C 46.916 220.268,46.271 219.800,46.055 219.800 C 45.840 219.800,45.128 219.391,44.473 218.892 C 43.818 218.392,43.108 217.984,42.894 217.984 C 42.681 217.984,42.507 217.837,42.507 217.658 C 42.507 217.479,41.649 216.792,40.599 216.132 C 39.550 215.471,38.296 214.549,37.813 214.083 C 37.329 213.617,36.430 212.997,35.815 212.704 C 35.199 212.411,34.224 211.766,33.648 211.269 C 33.071 210.773,31.772 209.836,30.760 209.187 C 29.748 208.537,28.520 207.635,28.031 207.182 C 27.103 206.321,26.521 206.129,26.521 206.683 M363.473 210.970 C 363.864 212.526,364.750 214.481,364.967 214.264 C 365.283 213.948,364.021 209.991,363.604 209.991 C 363.376 209.991,363.324 210.378,363.473 210.970 M365.497 216.167 C 365.497 216.467,365.656 216.957,365.849 217.257 C 366.162 217.741,366.201 217.741,366.201 217.257 C 366.201 216.957,366.043 216.467,365.849 216.167 C 365.536 215.683,365.497 215.683,365.497 216.167 M23.676 217.583 C 23.928 217.986,24.901 218.734,25.838 219.244 C 26.776 219.754,27.926 220.576,28.394 221.070 C 28.863 221.563,29.380 221.970,29.543 221.974 C 29.706 221.977,30.375 222.389,31.030 222.888 C 31.685 223.388,32.369 223.801,32.550 223.807 C 32.731 223.812,33.345 224.292,33.915 224.872 C 34.484 225.453,35.519 226.198,36.215 226.528 C 36.910 226.858,37.822 227.523,38.242 228.006 C 38.662 228.488,39.157 228.883,39.342 228.883 C 39.528 228.883,41.127 229.946,42.897 231.244 C 44.666 232.543,46.275 233.606,46.472 233.606 C 46.669 233.606,46.961 233.825,47.121 234.092 C 47.281 234.360,48.392 235.193,49.591 235.943 C 50.790 236.693,51.935 237.496,52.134 237.727 C 52.769 238.462,55.644 240.208,55.861 239.991 C 56.118 239.734,56.324 239.900,52.977 237.663 C 51.442 236.637,50.082 235.629,49.955 235.422 C 49.827 235.216,49.571 235.141,49.385 235.256 C 49.199 235.371,49.046 235.324,49.046 235.150 C 49.046 234.792,45.924 232.516,45.433 232.516 C 45.256 232.516,45.056 232.379,44.989 232.212 C 44.923 232.045,43.949 231.269,42.824 230.487 C 38.036 227.155,29.211 220.939,26.959 219.312 C 23.662 216.930,23.075 216.621,23.676 217.583 M366.708 219.912 C 366.823 220.373,367.199 221.395,367.542 222.183 C 367.886 222.970,368.177 223.724,368.189 223.857 C 368.221 224.212,368.756 224.693,368.756 224.367 C 368.756 223.566,367.568 220.163,367.288 220.163 C 367.109 220.163,367.056 219.918,367.171 219.619 C 367.286 219.318,367.182 219.074,366.939 219.074 C 366.659 219.074,366.574 219.381,366.708 219.912 M368.785 225.117 C 368.769 225.344,368.995 226.080,369.286 226.752 C 369.578 227.424,369.816 227.729,369.815 227.430 C 369.812 226.758,368.826 224.544,368.785 225.117 M370.411 230.064 C 370.718 231.061,370.871 231.248,371.150 230.969 C 371.463 230.656,370.950 229.246,370.523 229.246 C 370.314 229.246,370.267 229.593,370.411 230.064 M59.649 229.991 C 59.719 230.201,60.306 230.709,60.954 231.119 C 61.869 231.699,62.084 231.740,61.916 231.304 C 61.563 230.382,59.353 229.103,59.649 229.991 M62.489 232.122 C 62.489 232.339,62.720 232.516,63.003 232.516 C 63.286 232.516,63.573 232.644,63.639 232.799 C 63.820 233.222,68.726 236.572,68.904 236.394 C 69.057 236.241,63.503 232.078,62.841 231.850 C 62.647 231.783,62.489 231.906,62.489 232.122 M371.299 232.810 C 371.299 232.971,371.539 233.421,371.832 233.809 C 372.377 234.529,372.565 234.126,372.168 233.091 C 371.940 232.497,371.299 232.290,371.299 232.810 M372.417 234.911 C 372.384 235.375,373.677 239.223,374.087 239.880 C 374.240 240.126,374.415 240.641,374.474 241.025 C 374.534 241.409,374.722 241.899,374.892 242.115 C 375.062 242.330,375.402 243.131,375.647 243.894 C 375.893 244.656,376.158 245.217,376.236 245.139 C 376.458 244.917,374.129 238.162,373.783 238.025 C 373.613 237.958,373.578 237.736,373.705 237.531 C 373.831 237.325,373.775 237.053,373.580 236.926 C 373.384 236.798,373.049 236.203,372.835 235.604 C 372.621 235.005,372.433 234.693,372.417 234.911 M69.391 236.806 C 69.391 237.161,72.539 239.419,73.035 239.419 C 73.229 239.419,73.388 239.556,73.388 239.723 C 73.388 239.891,74.410 240.703,75.658 241.528 C 77.996 243.071,86.365 248.936,87.012 249.485 C 87.212 249.654,87.907 250.168,88.557 250.626 L 89.740 251.460 92.191 250.245 C 100.975 245.890,111.736 240.319,111.838 240.071 C 111.905 239.910,112.110 239.870,112.293 239.983 C 112.475 240.096,112.625 240.015,112.625 239.803 C 112.625 239.241,110.323 240.065,109.718 240.844 C 109.619 240.973,108.150 241.697,106.455 242.453 C 104.760 243.208,103.289 243.944,103.185 244.088 C 103.082 244.232,101.608 244.977,99.909 245.744 C 98.211 246.510,96.739 247.261,96.639 247.411 C 96.540 247.562,95.027 248.305,93.279 249.062 C 91.530 249.820,90.097 250.617,90.094 250.833 C 90.091 251.088,89.995 251.099,89.822 250.863 C 89.483 250.402,86.170 248.140,85.820 248.132 C 85.676 248.128,85.163 247.709,84.680 247.200 C 84.197 246.691,83.168 245.951,82.394 245.556 C 81.619 245.161,80.636 244.436,80.209 243.945 C 79.782 243.454,79.274 243.052,79.079 243.052 C 78.884 243.052,78.188 242.643,77.534 242.144 C 76.879 241.644,76.168 241.235,75.955 241.235 C 75.742 241.235,75.568 241.089,75.568 240.910 C 75.568 240.731,74.709 240.044,73.660 239.383 C 72.611 238.722,71.363 237.806,70.886 237.347 C 70.004 236.498,69.391 236.276,69.391 236.806 M114.078 238.692 C 113.379 239.075,112.970 239.388,113.170 239.388 C 113.370 239.388,114.105 239.075,114.805 238.692 C 115.504 238.309,115.913 237.996,115.713 237.996 C 115.513 237.996,114.777 238.309,114.078 238.692 M56.737 240.835 C 56.989 241.238,57.962 241.985,58.899 242.495 C 59.837 243.006,60.987 243.827,61.455 244.321 C 61.924 244.815,62.441 245.222,62.604 245.225 C 62.767 245.229,63.436 245.640,64.091 246.140 C 64.746 246.639,65.430 247.053,65.611 247.058 C 65.792 247.064,66.406 247.543,66.976 248.124 C 67.545 248.705,68.580 249.450,69.276 249.780 C 69.971 250.110,70.883 250.775,71.303 251.257 C 71.722 251.740,72.217 252.134,72.403 252.134 C 72.589 252.134,74.188 253.197,75.958 254.496 C 77.727 255.795,79.336 256.857,79.533 256.857 C 79.730 256.857,80.022 257.076,80.182 257.344 C 80.342 257.612,81.452 258.453,82.651 259.213 C 83.849 259.973,84.993 260.786,85.194 261.018 C 87.086 263.208,89.676 263.692,91.958 262.281 C 93.048 261.607,91.965 261.671,90.607 262.361 L 89.140 263.105 85.973 260.890 C 84.231 259.671,82.649 258.674,82.457 258.674 C 82.264 258.674,82.107 258.542,82.107 258.381 C 82.107 258.037,78.968 255.767,78.494 255.767 C 78.316 255.767,78.117 255.634,78.050 255.471 C 77.984 255.308,77.005 254.532,75.876 253.745 C 74.748 252.959,71.641 250.777,68.974 248.895 C 66.306 247.014,63.388 244.975,62.489 244.365 C 61.589 243.755,60.142 242.716,59.273 242.057 C 56.915 240.269,56.155 239.903,56.737 240.835 M376.391 246.049 C 376.400 246.790,377.049 247.597,377.364 247.260 C 377.525 247.089,377.462 246.879,377.223 246.793 C 376.984 246.708,376.879 246.403,376.989 246.116 C 377.099 245.830,377.008 245.595,376.787 245.595 C 376.566 245.595,376.388 245.799,376.391 246.049 M315.168 249.228 C 314.275 249.455,314.459 249.513,316.189 249.548 C 317.513 249.575,318.215 249.456,318.074 249.228 C 317.821 248.818,316.778 248.818,315.168 249.228 M321.526 249.228 C 321.526 249.428,322.302 249.572,323.252 249.548 C 324.792 249.510,324.860 249.476,323.887 249.228 C 322.280 248.819,321.526 248.819,321.526 249.228 M377.677 249.682 C 377.984 250.679,378.137 250.867,378.416 250.587 C 378.730 250.274,378.216 248.865,377.789 248.865 C 377.580 248.865,377.533 249.212,377.677 249.682 M311.444 249.842 C 311.794 249.933,312.366 249.933,312.716 249.842 C 313.065 249.750,312.779 249.676,312.080 249.676 C 311.381 249.676,311.094 249.750,311.444 249.842 M329.155 250.318 C 329.655 250.478,330.391 250.609,330.790 250.609 C 331.366 250.609,331.328 250.548,330.609 250.318 C 330.109 250.158,329.373 250.027,328.974 250.027 C 328.398 250.027,328.436 250.088,329.155 250.318 M304.360 250.932 C 304.010 251.023,303.724 251.268,303.724 251.477 C 303.724 251.693,304.076 251.762,304.541 251.637 C 304.991 251.516,305.481 251.416,305.631 251.413 C 305.781 251.410,305.904 251.244,305.904 251.045 C 305.904 250.672,305.475 250.640,304.360 250.932 M331.698 250.966 C 331.698 251.372,333.489 251.918,333.800 251.607 C 334.089 251.318,333.823 251.136,332.697 250.853 C 332.106 250.705,331.698 250.751,331.698 250.966 M299.343 253.326 C 297.434 254.381,295.635 255.447,295.347 255.694 C 295.059 255.941,293.678 256.985,292.280 258.014 C 289.604 259.983,276.453 272.953,274.298 275.749 C 273.064 277.352,273.473 277.240,275.477 275.427 C 276.026 274.930,276.476 274.379,276.476 274.202 C 276.476 274.026,277.866 272.538,279.564 270.896 C 281.262 269.254,282.652 267.725,282.652 267.498 C 282.652 267.271,283.149 266.705,283.757 266.240 C 284.364 265.775,286.002 264.303,287.396 262.969 C 288.790 261.635,290.745 259.945,291.741 259.214 C 292.737 258.483,293.551 257.736,293.551 257.553 C 293.551 257.370,293.698 257.221,293.878 257.221 C 294.188 257.221,297.589 255.095,298.539 254.307 C 298.784 254.104,299.970 253.510,301.173 252.988 C 302.376 252.466,303.361 251.897,303.361 251.724 C 303.361 251.177,302.904 251.359,299.343 253.326 M335.332 252.092 C 335.332 252.269,336.231 252.778,337.330 253.224 C 338.429 253.670,339.328 254.155,339.328 254.301 C 339.328 254.448,339.941 254.832,340.690 255.156 C 342.609 255.984,344.108 256.905,345.152 257.895 C 345.645 258.363,346.316 258.852,346.642 258.982 C 347.431 259.297,350.809 262.231,354.129 265.486 C 355.607 266.935,356.942 268.120,357.096 268.120 C 357.249 268.120,358.039 268.815,358.850 269.664 C 359.661 270.513,361.872 272.718,363.763 274.564 C 365.655 276.410,367.848 278.618,368.637 279.469 C 369.427 280.321,370.798 281.608,371.685 282.330 C 372.571 283.053,373.972 284.279,374.797 285.055 C 375.623 285.832,377.012 287.076,377.886 287.821 C 378.759 288.566,380.291 289.914,381.290 290.817 C 382.289 291.719,383.299 292.458,383.534 292.459 C 383.769 292.460,384.260 292.836,384.624 293.295 C 384.988 293.753,386.226 294.750,387.375 295.510 C 388.524 296.270,389.464 297.039,389.464 297.220 C 389.464 297.400,389.628 297.548,389.827 297.548 C 390.712 297.548,389.995 296.739,387.375 294.781 C 382.850 291.398,374.702 284.441,370.391 280.277 C 369.192 279.120,365.418 275.461,362.004 272.147 C 349.238 259.755,345.379 256.630,338.700 253.273 C 335.487 251.659,335.332 251.604,335.332 252.092 M379.799 254.893 C 379.921 255.211,380.120 255.865,380.241 256.346 C 380.361 256.827,380.616 257.221,380.806 257.221 C 380.996 257.221,381.071 257.350,380.973 257.508 C 380.876 257.666,381.013 258.279,381.278 258.870 C 381.543 259.462,381.862 260.255,381.987 260.633 C 382.113 261.012,382.302 261.234,382.409 261.128 C 382.706 260.830,380.339 254.314,379.934 254.314 C 379.738 254.314,379.677 254.575,379.799 254.893 M103.906 258.674 C 103.530 258.917,104.264 259.020,106.267 259.006 C 108.224 258.993,108.936 258.884,108.447 258.674 C 107.448 258.245,104.570 258.245,103.906 258.674 M100.999 259.037 C 100.558 259.322,100.611 259.390,101.272 259.395 C 101.721 259.398,102.089 259.237,102.089 259.037 C 102.089 258.582,101.703 258.582,100.999 259.037 M109.718 259.037 C 109.718 259.237,110.055 259.401,110.466 259.401 C 110.878 259.401,111.114 259.237,110.990 259.037 C 110.867 258.837,110.530 258.674,110.242 258.674 C 109.954 258.674,109.718 258.837,109.718 259.037 M114.882 260.662 C 118.117 262.324,120.046 263.469,120.925 264.250 C 123.401 266.449,127.157 270.223,127.157 270.514 C 127.158 270.696,127.845 271.499,128.684 272.298 L 130.211 273.751 129.456 272.528 C 126.965 268.493,120.170 262.467,116.060 260.649 C 113.480 259.508,112.653 259.517,114.882 260.662 M93.279 261.104 C 92.624 261.275,92.383 261.944,92.977 261.944 C 93.605 261.944,94.460 261.503,94.460 261.178 C 94.460 260.839,94.325 260.831,93.279 261.104 M383.036 263.154 C 383.174 263.520,383.288 263.970,383.288 264.153 C 383.288 264.337,383.451 264.487,383.651 264.487 C 384.211 264.487,384.082 263.775,383.399 263.098 C 382.823 262.527,382.800 262.531,383.036 263.154 M383.651 265.133 C 383.651 265.288,383.891 265.757,384.183 266.175 C 384.476 266.593,384.612 267.038,384.486 267.164 C 384.360 267.290,384.447 267.393,384.681 267.393 C 385.198 267.393,385.198 267.406,384.706 265.994 C 384.349 264.972,383.651 264.402,383.651 265.133 M386.194 271.173 C 386.194 271.607,388.450 277.043,388.765 277.366 C 389.283 277.898,389.171 277.287,388.326 274.969 C 387.899 273.800,387.399 272.843,387.214 272.843 C 387.029 272.843,386.980 272.678,387.104 272.477 C 387.229 272.275,387.075 271.855,386.762 271.543 C 386.450 271.230,386.194 271.064,386.194 271.173 M130.064 274.089 C 130.064 274.209,130.431 274.873,130.881 275.565 C 132.086 277.421,132.866 277.517,131.779 275.676 C 130.980 274.322,130.064 273.475,130.064 274.089 M132.676 277.838 C 134.039 280.689,134.924 282.289,135.140 282.289 C 135.287 282.289,136.108 283.801,136.964 285.649 C 137.820 287.498,138.640 289.092,138.788 289.192 C 138.935 289.292,139.423 290.232,139.872 291.281 C 140.321 292.330,140.823 293.188,140.987 293.188 C 141.279 293.188,138.190 286.450,137.462 285.498 C 137.257 285.232,136.637 284.114,136.084 283.015 C 134.934 280.733,132.979 277.566,132.720 277.566 C 132.624 277.566,132.605 277.688,132.676 277.838 M269.363 281.471 C 267.592 283.619,266.055 285.459,265.947 285.559 C 265.560 285.918,258.457 294.496,257.222 296.094 C 256.528 296.994,255.766 297.893,255.529 298.093 C 255.291 298.292,254.090 299.682,252.860 301.181 C 249.180 305.662,247.730 307.376,244.866 310.623 C 243.366 312.323,241.587 314.369,240.912 315.168 C 234.738 322.481,221.764 335.316,214.441 341.354 C 212.793 342.713,211.444 343.958,211.444 344.120 C 211.444 344.680,212.132 344.411,212.673 343.638 C 212.972 343.212,213.856 342.435,214.638 341.913 C 215.420 341.390,216.644 340.391,217.358 339.691 C 218.073 338.992,219.669 337.520,220.906 336.421 C 224.176 333.516,233.606 324.262,233.606 323.959 C 233.606 323.816,234.791 322.487,236.240 321.005 C 237.688 319.524,239.691 317.385,240.690 316.254 C 241.689 315.122,243.202 313.467,244.051 312.576 C 244.900 311.685,245.597 310.841,245.599 310.701 C 245.601 310.560,246.377 309.608,247.324 308.585 C 248.271 307.562,249.644 306.009,250.374 305.134 C 251.104 304.258,252.207 302.948,252.826 302.223 C 253.445 301.497,253.951 300.791,253.951 300.654 C 253.951 300.517,254.482 299.869,255.132 299.213 C 256.959 297.367,259.535 294.298,260.021 293.387 C 260.262 292.935,260.875 292.293,261.383 291.960 C 261.891 291.627,262.311 291.154,262.315 290.909 C 262.319 290.664,263.014 289.695,263.859 288.756 C 264.704 287.816,266.049 286.278,266.848 285.338 C 267.648 284.398,268.833 283.021,269.482 282.279 C 270.132 281.537,270.663 280.821,270.663 280.690 C 270.663 280.558,271.235 279.948,271.935 279.334 C 273.165 278.253,273.538 277.566,272.895 277.566 C 272.723 277.566,271.134 279.323,269.363 281.471 M389.139 277.966 C 389.052 278.462,389.923 280.472,390.226 280.472 C 390.407 280.472,390.554 280.309,390.554 280.109 C 390.554 279.909,390.422 279.746,390.261 279.746 C 390.100 279.746,389.790 279.296,389.573 278.747 C 389.356 278.197,389.161 277.846,389.139 277.966 M390.191 280.987 C 390.191 281.505,391.701 284.533,391.873 284.361 C 392.158 284.075,390.901 280.836,390.505 280.836 C 390.332 280.836,390.191 280.904,390.191 280.987 M392.218 285.559 C 392.567 286.877,393.076 287.741,393.073 287.012 C 393.072 286.712,392.825 286.058,392.524 285.559 L 391.977 284.650 392.218 285.559 M393.281 288.374 C 393.425 288.724,393.625 289.296,393.726 289.646 C 393.917 290.311,394.550 290.534,394.550 289.935 C 394.550 289.745,394.361 289.173,394.129 288.664 C 393.661 287.637,392.866 287.365,393.281 288.374 M395.166 292.638 C 395.499 293.335,395.824 293.852,395.889 293.787 C 396.115 293.561,395.204 291.371,394.884 291.371 C 394.707 291.371,394.834 291.942,395.166 292.638 M140.963 293.716 C 140.963 294.052,141.865 295.920,142.117 296.104 C 142.260 296.209,142.967 297.840,143.688 299.728 C 144.408 301.615,145.121 303.246,145.273 303.351 C 145.424 303.456,146.182 305.259,146.957 307.357 C 147.732 309.455,148.477 311.253,148.612 311.353 C 148.747 311.453,148.976 311.915,149.121 312.380 C 149.266 312.844,149.458 313.151,149.548 313.062 C 149.713 312.897,148.114 308.406,147.607 307.608 C 147.456 307.370,147.325 307.094,147.317 306.994 C 147.291 306.654,144.896 301.008,143.696 298.456 C 143.039 297.057,142.389 295.545,142.252 295.095 C 142.116 294.646,141.842 294.278,141.643 294.278 C 141.445 294.278,141.384 294.114,141.508 293.915 C 141.631 293.715,141.559 293.551,141.348 293.551 C 141.136 293.551,140.963 293.625,140.963 293.716 M396.152 294.823 C 396.311 295.223,396.604 295.999,396.803 296.549 C 397.157 297.527,397.820 297.926,397.820 297.160 C 397.820 296.623,397.089 295.310,396.421 294.649 C 395.920 294.153,395.893 294.171,396.152 294.823 M390.554 297.520 C 390.554 297.856,392.457 299.364,392.881 299.364 C 393.450 299.364,392.965 298.740,391.821 297.998 C 391.124 297.547,390.554 297.332,390.554 297.520 M397.807 298.613 C 398.014 298.999,398.351 299.758,398.557 300.298 C 398.762 300.839,399.033 301.179,399.159 301.053 C 399.452 300.760,398.177 297.911,397.752 297.911 C 397.576 297.911,397.600 298.227,397.807 298.613 M394.467 300.404 C 395.121 301.016,396.203 301.777,396.871 302.094 C 397.539 302.411,398.428 302.989,398.846 303.379 C 400.009 304.462,400.599 303.323,399.607 301.907 C 399.309 301.481,399.276 301.540,399.456 302.180 C 399.770 303.297,399.390 303.213,397.274 301.697 C 396.276 300.981,394.968 300.147,394.369 299.843 L 393.279 299.290 394.467 300.404 M149.682 313.727 C 149.682 314.444,151.646 319.346,151.934 319.346 C 152.334 319.346,152.038 318.270,151.090 316.281 C 150.716 315.494,150.409 314.645,150.409 314.395 C 150.409 314.144,150.245 313.838,150.045 313.715 C 149.846 313.591,149.682 313.597,149.682 313.727 M153.315 323.172 C 153.315 323.630,154.860 327.900,155.085 328.065 C 155.222 328.165,155.538 328.656,155.789 329.155 C 156.039 329.655,156.181 329.818,156.104 329.519 C 155.315 326.447,153.315 321.898,153.315 323.172 M156.224 330.463 C 156.220 331.218,157.019 333.152,157.336 333.152 C 157.672 333.152,157.468 332.456,156.697 330.972 C 156.438 330.472,156.225 330.244,156.224 330.463 M157.312 333.824 C 157.312 334.568,158.142 336.421,158.476 336.421 C 158.678 336.421,158.743 336.161,158.620 335.843 C 158.498 335.524,158.300 334.870,158.179 334.390 C 157.974 333.572,157.312 333.140,157.312 333.824 M158.809 337.148 C 158.803 337.448,159.022 338.183,159.297 338.783 C 159.939 340.186,159.948 339.533,159.310 337.875 C 159.040 337.175,158.815 336.848,158.809 337.148 M159.855 340.256 C 159.855 340.953,161.424 345.504,161.664 345.504 C 161.805 345.504,162.216 346.485,162.579 347.684 C 162.942 348.883,163.377 349.864,163.545 349.864 C 163.938 349.864,163.938 349.381,163.545 348.937 C 163.377 348.748,162.785 347.284,162.230 345.686 C 161.674 344.087,161.049 342.371,160.840 341.871 C 160.631 341.371,160.447 340.854,160.430 340.721 C 160.381 340.328,159.855 339.903,159.855 340.256 M209.437 345.331 C 208.643 346.010,208.162 346.573,208.370 346.580 C 208.879 346.599,211.312 344.536,211.072 344.290 C 210.968 344.182,210.232 344.651,209.437 345.331 M206.539 347.428 C 205.940 347.855,205.368 348.305,205.268 348.429 C 205.168 348.553,204.310 349.106,203.361 349.657 C 202.411 350.208,201.635 350.807,201.635 350.988 C 201.635 351.553,202.228 351.350,203.129 350.478 C 203.606 350.016,204.764 349.197,205.703 348.657 C 207.319 347.728,208.042 347.067,207.756 346.781 C 207.686 346.711,207.138 347.002,206.539 347.428 M198.745 352.514 C 195.421 354.555,188.992 357.809,188.755 357.572 C 188.646 357.462,188.556 357.563,188.556 357.796 C 188.556 358.029,188.634 358.220,188.730 358.220 C 189.139 358.220,192.024 356.974,192.197 356.723 C 192.301 356.571,193.453 355.969,194.756 355.384 C 196.060 354.799,197.364 354.094,197.655 353.817 C 197.946 353.540,198.810 352.987,199.576 352.588 C 200.900 351.897,201.496 351.384,201.217 351.172 C 201.147 351.119,200.035 351.723,198.745 352.514 M164.578 353.886 C 164.578 354.100,164.855 354.550,165.193 354.885 C 165.770 355.456,165.793 355.453,165.556 354.830 C 165.418 354.463,165.304 354.014,165.304 353.830 C 165.304 353.647,165.141 353.497,164.941 353.497 C 164.741 353.497,164.578 353.672,164.578 353.886 M166.036 357.199 C 166.047 358.111,166.746 358.863,166.752 357.969 C 166.755 357.531,166.594 357.072,166.394 356.948 C 166.194 356.825,166.033 356.938,166.036 357.199 M186.194 358.773 C 184.092 359.763,184.360 359.948,186.636 359.079 C 187.736 358.659,189.089 357.558,188.102 357.887 C 188.052 357.903,187.193 358.302,186.194 358.773 M182.652 359.923 C 182.302 360.015,182.016 360.236,182.016 360.415 C 182.016 360.594,181.771 360.646,181.471 360.531 C 181.172 360.416,180.926 360.503,180.926 360.724 C 180.926 361.226,181.059 361.225,182.792 360.705 C 184.794 360.106,184.667 359.397,182.652 359.923 M167.121 360.345 C 167.121 361.089,167.952 362.943,168.285 362.943 C 168.487 362.943,168.552 362.682,168.430 362.364 C 168.308 362.046,168.109 361.392,167.988 360.911 C 167.783 360.093,167.121 359.662,167.121 360.345 M179.473 361.126 C 179.473 361.326,179.718 361.490,180.018 361.490 C 180.318 361.490,180.563 361.326,180.563 361.126 C 180.563 360.926,180.318 360.763,180.018 360.763 C 179.718 360.763,179.473 360.926,179.473 361.126 " stroke="none" fill="#d1d1d1" fill-rule="evenodd"></path><path id="path1" d="M264.124 0.392 C 257.863 1.341,248.428 9.317,241.596 19.437 C 240.921 20.436,240.237 21.308,240.076 21.375 C 239.914 21.441,239.782 21.714,239.782 21.980 C 239.782 22.246,239.653 22.519,239.496 22.586 C 239.339 22.652,238.766 23.472,238.224 24.407 C 237.682 25.342,237.034 26.323,236.784 26.586 C 236.533 26.850,236.002 27.697,235.603 28.469 C 235.204 29.240,234.674 29.952,234.425 30.051 C 234.177 30.150,234.051 30.356,234.146 30.510 C 234.241 30.664,233.675 31.786,232.887 33.004 C 232.100 34.222,231.199 35.673,230.885 36.229 C 230.571 36.784,229.997 37.729,229.609 38.329 C 229.221 38.928,228.549 40.073,228.117 40.872 C 227.684 41.671,226.884 42.979,226.340 43.778 C 225.795 44.578,225.005 45.909,224.585 46.738 C 224.164 47.566,223.611 48.468,223.354 48.743 C 223.098 49.017,222.577 49.810,222.196 50.506 C 221.100 52.508,213.668 63.990,213.264 64.305 C 213.136 64.405,212.479 65.304,211.805 66.303 C 211.130 67.302,210.446 68.174,210.285 68.241 C 210.123 68.308,209.991 68.511,209.991 68.692 C 209.991 69.719,200.675 80.885,195.460 86.108 C 187.527 94.054,174.355 103.226,169.284 104.335 C 168.993 104.399,168.654 104.589,168.531 104.758 C 168.407 104.928,167.889 105.091,167.380 105.122 C 166.872 105.152,166.526 105.248,166.613 105.335 C 166.748 105.470,163.691 106.571,162.035 106.984 C 161.735 107.059,161.408 107.152,161.308 107.191 C 161.208 107.229,160.986 107.236,160.816 107.206 C 160.645 107.175,160.273 107.342,159.989 107.578 C 159.706 107.813,159.370 107.902,159.244 107.775 C 159.117 107.649,158.835 107.685,158.617 107.857 C 158.398 108.029,157.321 108.458,156.222 108.812 C 149.129 111.092,137.540 121.046,126.431 134.398 C 125.531 135.479,124.541 136.631,124.230 136.958 C 123.918 137.286,123.019 138.379,122.231 139.387 C 121.033 140.921,114.897 148.589,110.726 153.764 C 110.124 154.511,109.488 155.032,109.312 154.923 C 109.136 154.815,108.992 154.886,108.992 155.082 C 108.992 155.278,108.379 155.636,107.629 155.877 C 106.880 156.119,106.094 156.453,105.881 156.620 C 105.669 156.787,103.953 157.517,102.067 158.243 C 100.181 158.969,97.768 159.958,96.706 160.442 C 95.643 160.925,94.621 161.226,94.435 161.111 C 94.249 160.996,94.096 161.043,94.096 161.215 C 94.096 161.523,88.446 164.025,87.738 164.030 C 87.539 164.032,87.293 164.137,87.193 164.265 C 86.948 164.578,81.316 166.754,80.745 166.756 C 80.495 166.757,80.291 166.901,80.291 167.076 C 80.291 167.252,78.778 167.936,76.930 168.597 C 75.082 169.258,73.488 169.894,73.388 170.011 C 73.007 170.457,71.138 171.117,70.817 170.919 C 70.633 170.804,70.481 170.902,70.481 171.135 C 70.481 171.368,70.228 171.461,69.918 171.342 C 69.607 171.223,69.439 171.263,69.542 171.431 C 69.646 171.599,69.053 171.939,68.225 172.187 C 67.397 172.435,66.380 172.855,65.966 173.121 C 65.552 173.386,64.886 173.657,64.487 173.722 C 64.087 173.788,63.678 173.940,63.579 174.059 C 63.479 174.179,61.926 174.824,60.127 175.493 C 58.329 176.162,56.776 176.816,56.676 176.946 C 56.576 177.076,55.023 177.726,53.224 178.390 C 51.426 179.054,49.791 179.718,49.591 179.866 C 49.391 180.015,47.920 180.649,46.322 181.275 C 44.723 181.902,42.925 182.639,42.325 182.914 C 41.726 183.188,40.990 183.467,40.690 183.532 C 40.391 183.598,40.064 183.749,39.964 183.869 C 39.864 183.988,38.311 184.632,36.512 185.299 C 34.714 185.967,32.907 186.725,32.496 186.985 C 32.086 187.244,30.860 187.763,29.772 188.137 C 28.683 188.512,26.655 189.351,25.263 190.002 C 23.872 190.653,22.360 191.207,21.903 191.233 C 21.446 191.259,21.072 191.373,21.072 191.486 C 21.072 191.662,17.234 193.403,16.712 193.465 C 16.612 193.477,16.159 193.692,15.705 193.944 C 15.252 194.196,14.720 194.303,14.525 194.182 C 14.329 194.062,14.169 194.116,14.169 194.303 C 14.169 194.490,13.147 195.020,11.898 195.481 C 10.649 195.941,9.267 196.547,8.826 196.828 C 8.385 197.108,7.854 197.232,7.645 197.103 C 7.437 196.975,7.266 197.020,7.266 197.205 C 7.266 197.390,6.291 197.897,5.099 198.331 C 3.908 198.766,2.489 199.351,1.947 199.633 C 1.404 199.914,0.826 200.061,0.662 199.960 C 0.498 199.858,0.369 199.989,0.376 200.251 C 0.383 200.513,2.043 201.871,4.065 203.270 C 10.869 207.977,11.807 208.656,11.929 208.961 C 11.995 209.128,12.195 209.264,12.372 209.264 C 12.864 209.264,15.985 211.540,15.985 211.899 C 15.985 212.072,16.124 212.128,16.294 212.023 C 16.463 211.918,16.913 212.121,17.293 212.473 C 17.673 212.826,19.046 213.834,20.345 214.714 C 21.644 215.594,22.870 216.445,23.070 216.605 C 23.270 216.765,24.778 217.836,26.422 218.984 C 28.066 220.132,31.969 222.870,35.096 225.068 C 38.222 227.266,41.700 229.704,42.824 230.487 C 43.949 231.269,44.923 232.045,44.989 232.212 C 45.056 232.379,45.256 232.516,45.433 232.516 C 45.924 232.516,49.046 234.792,49.046 235.150 C 49.046 235.324,49.199 235.371,49.385 235.256 C 49.571 235.141,49.827 235.216,49.955 235.422 C 50.082 235.629,51.442 236.640,52.977 237.670 C 54.512 238.699,55.849 239.637,55.949 239.754 C 56.049 239.870,57.095 240.619,58.273 241.418 C 60.534 242.951,61.741 243.794,69.195 249.046 C 71.747 250.845,74.756 252.959,75.882 253.745 C 77.008 254.532,77.984 255.308,78.050 255.471 C 78.117 255.634,78.316 255.767,78.494 255.767 C 78.968 255.767,82.107 258.037,82.107 258.381 C 82.107 258.542,82.264 258.674,82.457 258.674 C 82.649 258.674,84.236 259.674,85.983 260.896 C 89.153 263.114,89.161 263.118,90.265 262.544 C 90.874 262.227,91.617 261.922,91.916 261.865 C 92.216 261.808,92.550 261.643,92.659 261.499 C 92.768 261.354,93.258 261.190,93.749 261.135 C 94.240 261.080,94.723 260.929,94.823 260.798 C 95.000 260.566,98.464 259.544,100.272 259.190 C 104.116 258.438,110.136 258.387,111.043 259.100 C 111.271 259.279,111.598 259.393,111.769 259.354 C 114.981 258.606,125.300 266.230,129.289 272.298 C 129.815 273.097,130.432 273.915,130.661 274.114 C 130.890 274.314,131.775 275.622,132.628 277.021 C 134.006 279.282,134.899 280.836,137.011 284.650 C 138.402 287.163,141.049 292.677,141.066 293.097 C 141.076 293.347,141.230 293.551,141.408 293.551 C 141.586 293.551,141.631 293.715,141.508 293.915 C 141.384 294.114,141.445 294.278,141.643 294.278 C 141.842 294.278,142.116 294.646,142.252 295.095 C 142.389 295.545,143.039 297.057,143.696 298.456 C 144.770 300.741,147.244 306.535,147.341 306.994 C 147.363 307.094,147.711 307.911,148.115 308.810 C 148.519 309.709,148.974 310.854,149.125 311.353 C 149.405 312.281,149.775 313.190,151.042 316.076 C 151.437 316.975,152.134 318.856,152.592 320.254 C 153.049 321.653,153.534 322.879,153.669 322.979 C 153.805 323.079,154.544 324.959,155.311 327.157 C 156.078 329.355,156.827 331.317,156.974 331.517 C 157.122 331.717,157.299 332.207,157.368 332.607 C 157.437 333.006,157.591 333.415,157.712 333.515 C 157.832 333.615,158.385 335.086,158.941 336.785 C 159.497 338.483,160.113 340.077,160.311 340.327 C 160.509 340.577,160.548 340.781,160.400 340.781 C 160.251 340.781,160.290 340.985,160.487 341.235 C 160.684 341.485,161.386 343.243,162.046 345.141 C 162.707 347.039,163.398 348.789,163.581 349.030 C 163.764 349.271,163.808 349.639,163.679 349.848 C 163.550 350.056,163.613 350.227,163.818 350.227 C 164.024 350.227,164.097 350.472,163.982 350.772 C 163.867 351.072,163.972 351.317,164.214 351.317 C 164.457 351.317,164.561 351.562,164.446 351.862 C 164.331 352.162,164.413 352.407,164.628 352.407 C 164.843 352.407,164.925 352.652,164.810 352.952 C 164.695 353.252,164.738 353.497,164.905 353.497 C 165.073 353.497,165.417 354.237,165.670 355.141 C 165.923 356.045,166.272 356.872,166.444 356.979 C 166.616 357.086,166.757 357.562,166.757 358.038 C 166.757 358.514,166.924 359.006,167.127 359.132 C 167.330 359.257,167.402 359.512,167.287 359.698 C 167.172 359.884,167.230 360.036,167.415 360.036 C 167.601 360.036,167.955 360.759,168.203 361.642 C 168.719 363.486,168.764 363.487,177.555 361.721 C 177.799 361.672,178.101 361.529,178.227 361.404 C 178.352 361.279,178.684 361.264,178.964 361.372 C 179.244 361.479,179.473 361.367,179.473 361.123 C 179.473 360.857,179.766 360.755,180.200 360.868 C 180.599 360.973,180.926 360.893,180.926 360.690 C 180.926 360.488,181.172 360.416,181.471 360.531 C 181.771 360.646,182.016 360.595,182.016 360.417 C 182.016 360.239,182.548 359.978,183.197 359.837 C 183.847 359.695,185.223 359.206,186.257 358.750 C 187.291 358.294,188.231 358.016,188.346 358.131 C 188.461 358.247,188.556 358.123,188.556 357.856 C 188.556 357.590,188.645 357.461,188.754 357.570 C 188.981 357.797,194.520 355.021,198.431 352.720 C 199.894 351.859,201.213 351.191,201.362 351.236 C 201.512 351.281,201.635 351.169,201.635 350.988 C 201.635 350.807,202.390 350.217,203.313 349.676 C 204.236 349.135,205.258 348.477,205.584 348.214 C 207.778 346.443,211.081 344.069,211.081 344.263 C 211.081 344.390,211.367 344.169,211.717 343.772 C 212.066 343.374,213.497 342.108,214.896 340.957 C 221.802 335.277,234.883 322.310,240.912 315.168 C 241.587 314.369,243.366 312.323,244.866 310.623 C 247.730 307.376,249.180 305.662,252.860 301.181 C 254.090 299.682,255.291 298.292,255.529 298.093 C 255.766 297.893,256.528 296.994,257.222 296.094 C 258.383 294.591,265.509 285.976,265.938 285.559 C 266.040 285.459,267.337 283.906,268.820 282.107 C 270.303 280.309,272.043 278.265,272.688 277.566 C 273.332 276.866,275.409 274.578,277.302 272.480 C 281.869 267.419,289.373 260.192,292.393 257.949 C 293.730 256.956,295.059 255.941,295.347 255.694 C 296.486 254.718,302.843 251.414,303.270 251.576 C 303.520 251.671,303.724 251.609,303.724 251.440 C 303.724 250.630,314.092 249.108,319.528 249.121 C 324.878 249.133,333.878 250.588,333.878 251.441 C 333.878 251.610,334.124 251.654,334.423 251.539 C 334.723 251.424,334.968 251.521,334.968 251.754 C 334.968 251.987,335.125 252.081,335.316 251.962 C 335.756 251.690,341.001 254.313,343.869 256.240 C 348.461 259.324,351.919 262.358,362.004 272.147 C 365.418 275.461,369.192 279.120,370.391 280.277 C 374.702 284.441,382.850 291.398,387.375 294.781 C 388.924 295.938,390.191 297.062,390.191 297.277 C 390.191 297.493,390.295 297.565,390.422 297.437 C 390.618 297.242,391.704 297.867,393.279 299.079 C 394.813 300.261,399.352 303.040,399.502 302.890 C 399.605 302.787,399.263 301.770,398.742 300.630 C 398.220 299.491,397.759 298.372,397.716 298.144 C 397.673 297.916,397.536 297.648,397.411 297.548 C 397.074 297.279,394.737 291.599,394.832 291.281 C 394.877 291.131,394.741 291.008,394.529 291.008 C 394.317 291.008,394.245 290.845,394.369 290.645 C 394.492 290.445,394.460 290.282,394.298 290.282 C 394.135 290.282,393.612 289.260,393.136 288.011 C 392.659 286.762,391.796 284.712,391.217 283.456 C 390.638 282.200,390.262 281.015,390.381 280.822 C 390.500 280.630,390.435 280.472,390.237 280.472 C 390.039 280.472,389.763 280.104,389.625 279.655 C 389.487 279.205,388.885 277.781,388.286 276.489 C 387.688 275.198,387.176 273.783,387.150 273.345 C 387.124 272.908,387.004 272.610,386.884 272.684 C 386.764 272.758,386.462 272.139,386.213 271.308 C 385.964 270.477,385.586 269.379,385.374 268.868 C 385.161 268.357,385.014 267.816,385.046 267.666 C 385.078 267.516,384.941 267.393,384.741 267.393 C 384.541 267.393,384.413 267.271,384.455 267.121 C 384.497 266.971,384.326 266.477,384.075 266.023 C 383.823 265.570,383.717 265.038,383.838 264.843 C 383.958 264.647,383.902 264.487,383.712 264.487 C 383.522 264.487,383.255 264.037,383.118 263.488 C 382.981 262.938,382.619 261.916,382.315 261.217 C 382.010 260.518,381.618 259.619,381.445 259.219 C 381.271 258.819,381.083 258.247,381.028 257.947 C 380.972 257.648,380.828 257.321,380.708 257.221 C 380.588 257.121,380.116 255.895,379.660 254.496 C 379.205 253.097,378.670 251.748,378.472 251.499 C 378.274 251.249,378.255 251.042,378.430 251.039 C 378.604 251.036,378.526 250.894,378.257 250.723 C 377.988 250.552,377.742 249.983,377.712 249.457 C 377.682 248.932,377.517 248.502,377.345 248.502 C 377.174 248.501,377.128 248.256,377.243 247.956 C 377.358 247.657,377.276 247.411,377.061 247.411 C 376.841 247.411,376.775 247.139,376.910 246.787 C 377.042 246.443,377.033 246.279,376.889 246.423 C 376.746 246.566,376.330 245.826,375.965 244.777 C 375.600 243.728,375.127 242.536,374.914 242.128 C 374.701 241.720,374.487 241.148,374.439 240.856 C 374.391 240.565,374.143 239.946,373.887 239.481 C 373.632 239.016,373.515 238.394,373.628 238.100 C 373.741 237.805,373.692 237.652,373.520 237.758 C 373.347 237.865,372.994 237.179,372.734 236.233 C 372.474 235.288,372.031 234.153,371.749 233.713 C 371.467 233.272,371.342 232.740,371.471 232.532 C 371.600 232.323,371.514 232.153,371.281 232.153 C 371.048 232.153,370.948 231.918,371.058 231.631 C 371.168 231.344,371.109 231.058,370.926 230.995 C 370.743 230.932,370.548 230.472,370.492 229.973 C 370.436 229.473,370.300 228.983,370.190 228.883 C 370.080 228.783,369.699 227.884,369.342 226.885 C 368.986 225.886,368.600 224.823,368.484 224.523 C 368.368 224.223,368.249 223.896,368.220 223.797 C 368.191 223.697,367.885 222.970,367.541 222.181 C 367.198 221.392,367.012 220.498,367.129 220.194 C 367.245 219.890,367.225 219.757,367.083 219.899 C 366.941 220.041,366.516 219.219,366.139 218.071 C 365.763 216.924,365.353 215.740,365.229 215.441 C 365.105 215.141,364.984 214.814,364.959 214.714 C 364.935 214.614,364.733 214.205,364.510 213.806 C 364.287 213.406,363.824 212.098,363.481 210.899 C 363.138 209.700,362.550 208.035,362.175 207.198 C 361.799 206.361,361.435 205.380,361.365 205.018 C 361.295 204.656,361.048 203.896,360.816 203.330 C 360.584 202.764,360.487 202.151,360.600 201.968 C 360.713 201.785,360.659 201.635,360.479 201.635 C 360.299 201.635,359.947 200.940,359.696 200.091 C 359.446 199.242,359.015 198.056,358.739 197.457 C 357.858 195.541,357.129 193.211,357.316 192.908 C 357.416 192.746,357.367 192.559,357.208 192.492 C 356.824 192.331,355.244 188.185,355.257 187.375 C 355.263 187.025,355.097 186.739,354.889 186.739 C 354.680 186.739,354.603 186.494,354.718 186.194 C 354.833 185.895,354.751 185.649,354.536 185.649 C 354.322 185.649,354.240 185.404,354.355 185.104 C 354.470 184.805,354.429 184.559,354.265 184.559 C 354.101 184.559,353.594 183.292,353.140 181.744 C 352.686 180.195,352.152 178.724,351.953 178.474 C 351.754 178.224,351.713 178.020,351.862 178.020 C 352.011 178.020,351.971 177.816,351.773 177.566 C 351.380 177.068,348.684 169.103,348.778 168.714 C 348.810 168.582,348.642 168.354,348.406 168.208 C 348.170 168.062,347.951 167.512,347.921 166.987 C 347.890 166.461,347.725 166.031,347.554 166.031 C 347.383 166.031,347.337 165.786,347.452 165.486 C 347.567 165.186,347.533 164.941,347.376 164.941 C 347.219 164.941,346.709 163.674,346.242 162.125 C 345.776 160.577,345.269 159.146,345.117 158.946 C 344.964 158.747,344.806 158.420,344.765 158.220 C 344.724 158.020,344.545 157.475,344.368 157.009 C 344.191 156.542,344.138 156.011,344.251 155.828 C 344.364 155.645,344.316 155.495,344.144 155.495 C 343.972 155.495,343.452 154.310,342.990 152.861 C 342.528 151.412,341.991 150.030,341.797 149.789 C 341.604 149.548,341.551 149.180,341.680 148.971 C 341.808 148.763,341.768 148.592,341.590 148.592 C 341.194 148.592,340.376 146.048,340.637 145.626 C 340.740 145.459,340.667 145.322,340.475 145.322 C 340.284 145.322,339.931 144.504,339.691 143.505 C 339.451 142.505,339.108 141.596,338.928 141.485 C 338.748 141.374,338.601 140.894,338.601 140.418 C 338.601 139.942,338.435 139.450,338.232 139.324 C 338.029 139.199,337.957 138.944,338.072 138.758 C 338.187 138.572,338.132 138.420,337.949 138.420 C 337.767 138.420,337.246 137.153,336.791 135.604 C 336.337 134.055,335.837 132.625,335.679 132.425 C 335.522 132.225,335.381 131.938,335.367 131.788 C 335.352 131.637,335.094 130.925,334.793 130.205 C 334.492 129.485,334.337 128.750,334.447 128.572 C 334.557 128.393,334.498 128.247,334.316 128.247 C 334.133 128.247,333.612 126.980,333.158 125.431 C 332.704 123.883,332.170 122.411,331.971 122.162 C 331.772 121.912,331.715 121.708,331.844 121.708 C 331.973 121.708,331.851 121.340,331.573 120.890 C 330.986 119.939,328.913 113.774,328.869 112.847 C 328.861 112.670,328.661 112.405,328.424 112.259 C 328.188 112.113,327.970 111.563,327.939 111.038 C 327.909 110.512,327.744 110.082,327.572 110.082 C 327.401 110.082,327.355 109.837,327.470 109.537 C 327.585 109.237,327.551 108.992,327.394 108.992 C 327.237 108.992,326.813 108.057,326.453 106.914 C 326.093 105.772,325.559 104.471,325.266 104.024 C 324.973 103.577,324.830 103.054,324.948 102.863 C 325.067 102.671,325.031 102.460,324.869 102.393 C 324.707 102.325,324.123 100.963,323.571 99.364 C 323.019 97.766,322.247 95.755,321.855 94.896 C 321.463 94.037,321.238 93.178,321.355 92.988 C 321.473 92.798,321.426 92.643,321.251 92.643 C 321.077 92.643,320.551 91.540,320.084 90.191 C 319.617 88.842,319.100 87.562,318.934 87.347 C 318.769 87.131,318.582 86.641,318.518 86.257 C 318.454 85.873,318.198 85.187,317.949 84.734 C 317.700 84.280,317.595 83.749,317.716 83.553 C 317.837 83.357,317.803 83.197,317.640 83.197 C 317.406 83.197,315.634 79.231,315.531 78.474 C 315.517 78.374,315.299 77.921,315.048 77.468 C 314.796 77.014,314.688 76.482,314.809 76.287 C 314.930 76.091,314.886 75.931,314.712 75.931 C 314.537 75.931,314.009 74.827,313.538 73.479 C 313.066 72.130,312.445 70.658,312.157 70.209 C 311.869 69.759,311.774 69.389,311.947 69.386 C 312.120 69.383,312.088 69.260,311.875 69.113 C 311.663 68.967,311.102 67.784,310.628 66.485 C 310.155 65.186,309.552 63.783,309.288 63.368 C 309.024 62.952,308.917 62.503,309.051 62.369 C 309.185 62.235,309.104 62.125,308.871 62.125 C 308.638 62.125,308.482 62.003,308.524 61.853 C 308.567 61.703,308.395 61.209,308.144 60.755 C 307.892 60.302,307.786 59.770,307.907 59.575 C 308.027 59.379,307.966 59.219,307.770 59.219 C 307.574 59.219,307.211 58.607,306.964 57.858 C 306.717 57.110,306.135 55.782,305.670 54.908 C 305.205 54.034,304.914 53.175,305.022 52.999 C 305.131 52.823,305.073 52.679,304.893 52.679 C 304.713 52.679,304.104 51.494,303.540 50.045 C 302.976 48.597,302.409 47.330,302.279 47.230 C 302.150 47.130,301.335 45.413,300.468 43.415 C 299.601 41.417,298.783 39.700,298.650 39.600 C 298.517 39.500,297.768 38.029,296.986 36.331 C 296.204 34.632,295.397 33.122,295.194 32.976 C 294.953 32.802,294.950 32.705,295.186 32.698 C 295.404 32.691,295.392 32.579,295.157 32.420 C 294.941 32.273,294.105 30.926,293.299 29.428 C 289.142 21.703,287.321 18.825,282.606 12.526 C 279.871 8.871,275.692 4.663,273.206 3.060 C 272.307 2.480,271.451 1.840,271.304 1.638 C 271.158 1.437,271.035 1.403,271.032 1.565 C 271.029 1.726,270.663 1.603,270.219 1.292 C 269.775 0.981,269.121 0.727,268.766 0.727 C 268.410 0.727,268.120 0.563,268.120 0.363 C 268.120 -0.051,266.992 -0.043,264.124 0.392 M226.576 63.624 C 226.090 64.698,225.390 66.435,225.022 67.484 C 224.654 68.533,224.218 69.391,224.053 69.391 C 223.888 69.391,223.859 69.562,223.988 69.771 C 224.117 69.979,223.959 70.552,223.638 71.042 C 223.316 71.533,223.158 71.935,223.285 71.935 C 223.412 71.935,223.281 72.302,222.993 72.752 C 222.705 73.202,222.004 74.918,221.435 76.567 C 220.866 78.215,220.266 79.564,220.101 79.564 C 219.935 79.564,219.836 79.687,219.879 79.837 C 220.001 80.259,217.903 85.543,217.558 85.680 C 217.390 85.747,217.349 85.959,217.468 86.151 C 217.586 86.342,217.420 86.900,217.098 87.391 C 216.777 87.882,216.618 88.283,216.745 88.283 C 216.873 88.283,216.738 88.651,216.446 89.101 C 216.154 89.550,215.632 90.777,215.285 91.826 C 214.939 92.875,214.496 93.733,214.300 93.733 C 214.104 93.733,214.043 93.893,214.164 94.089 C 214.285 94.284,214.180 94.816,213.931 95.270 C 213.681 95.723,213.446 96.278,213.408 96.503 C 213.370 96.727,213.084 97.463,212.772 98.137 C 212.461 98.812,211.719 100.590,211.124 102.089 C 210.529 103.588,209.704 105.501,209.290 106.340 C 208.876 107.180,208.538 108.038,208.538 108.248 C 208.538 108.457,208.365 108.629,208.153 108.629 C 207.941 108.629,207.845 108.753,207.939 108.905 C 208.033 109.056,207.853 109.751,207.540 110.449 C 207.227 111.146,206.997 111.839,207.028 111.989 C 207.059 112.139,206.921 112.262,206.721 112.262 C 206.521 112.262,206.396 112.384,206.443 112.534 C 206.562 112.914,204.438 117.865,204.092 118.015 C 203.937 118.082,203.903 118.286,204.016 118.469 C 204.128 118.652,204.075 118.801,203.897 118.801 C 203.718 118.801,203.570 119.005,203.568 119.255 C 203.565 119.505,203.047 120.806,202.417 122.147 C 201.787 123.487,201.272 124.754,201.272 124.962 C 201.272 125.170,201.098 125.341,200.887 125.341 C 200.675 125.341,200.603 125.504,200.727 125.704 C 200.850 125.904,200.751 126.067,200.506 126.067 C 200.261 126.067,200.168 126.175,200.300 126.306 C 200.431 126.438,200.392 126.724,200.212 126.942 C 200.032 127.160,199.444 128.442,198.905 129.791 C 198.366 131.140,197.769 132.243,197.578 132.243 C 197.388 132.243,197.327 132.396,197.442 132.583 C 197.658 132.932,194.841 138.791,194.266 139.187 C 194.089 139.309,193.964 139.517,193.990 139.648 C 194.066 140.043,191.740 144.768,191.405 144.899 C 191.234 144.966,191.187 145.171,191.300 145.353 C 191.413 145.536,191.305 145.686,191.060 145.686 C 190.815 145.686,190.708 145.779,190.822 145.893 C 191.038 146.109,184.472 159.263,183.672 160.218 C 183.420 160.518,182.747 161.703,182.176 162.852 C 181.605 164.001,180.999 164.941,180.829 164.941 C 180.659 164.941,180.609 165.085,180.718 165.262 C 180.827 165.438,180.614 165.969,180.245 166.442 C 179.875 166.915,179.202 168.038,178.748 168.937 C 178.294 169.837,177.822 170.654,177.699 170.754 C 177.576 170.854,177.066 171.730,176.567 172.701 C 176.067 173.672,175.455 174.547,175.206 174.646 C 174.958 174.745,174.835 174.957,174.933 175.116 C 175.032 175.275,174.540 176.255,173.841 177.294 C 173.142 178.333,172.570 179.265,172.570 179.366 C 172.570 179.467,172.057 180.309,171.429 181.237 C 170.801 182.165,169.417 184.331,168.352 186.050 C 165.578 190.529,166.107 190.478,161.105 186.746 C 158.719 184.966,156.594 183.360,156.384 183.178 C 156.174 182.997,155.315 182.394,154.477 181.839 C 153.638 181.284,152.952 180.688,152.952 180.515 C 152.952 180.342,152.791 180.200,152.594 180.200 C 152.397 180.200,150.639 179.000,148.688 177.533 C 146.737 176.066,143.798 173.871,142.157 172.656 C 140.517 171.440,138.964 170.266,138.706 170.047 C 138.449 169.828,136.685 168.491,134.787 167.075 C 132.888 165.660,130.926 164.191,130.427 163.812 C 129.927 163.433,127.767 161.809,125.626 160.203 C 120.608 156.440,120.729 156.950,123.942 153.134 C 124.278 152.734,125.642 151.017,126.972 149.319 C 128.302 147.620,129.585 146.067,129.823 145.867 C 130.061 145.668,130.518 145.095,130.839 144.596 C 134.394 139.070,153.008 120.618,155.027 120.618 C 155.284 120.618,155.495 120.465,155.495 120.279 C 155.495 119.934,156.907 119.325,157.402 119.456 C 157.552 119.495,157.675 119.355,157.675 119.143 C 157.675 118.931,157.838 118.859,158.038 118.983 C 158.238 119.106,158.401 119.040,158.401 118.837 C 158.401 118.633,159.096 118.288,159.946 118.070 C 160.795 117.852,162.113 117.434,162.876 117.141 C 163.638 116.848,164.404 116.695,164.577 116.802 C 164.749 116.909,164.989 116.837,165.109 116.643 C 165.229 116.449,165.568 116.382,165.861 116.494 C 166.154 116.607,166.394 116.539,166.394 116.344 C 166.394 116.149,167.171 115.779,168.120 115.522 C 169.069 115.265,170.315 114.821,170.889 114.535 C 171.462 114.248,172.358 113.937,172.879 113.842 C 173.400 113.748,173.912 113.541,174.016 113.384 C 174.120 113.226,175.268 112.633,176.567 112.066 C 177.866 111.500,179.348 110.749,179.862 110.399 C 180.376 110.049,181.030 109.711,181.315 109.649 C 181.601 109.587,181.916 109.454,182.016 109.352 C 182.488 108.871,185.313 107.175,185.642 107.175 C 185.846 107.175,186.013 107.042,186.013 106.879 C 186.013 106.716,186.664 106.217,187.460 105.769 C 188.256 105.322,189.114 104.760,189.367 104.522 C 189.620 104.283,190.481 103.602,191.281 103.010 C 197.705 98.247,206.427 89.599,212.543 81.926 C 213.976 80.127,215.419 78.322,215.749 77.913 C 216.079 77.505,216.905 76.360,217.585 75.370 C 218.264 74.380,219.000 73.402,219.220 73.198 C 219.439 72.993,219.782 72.553,219.982 72.219 C 221.117 70.324,227.237 61.449,227.339 61.551 C 227.406 61.617,227.063 62.551,226.576 63.624 M115.458 165.213 C 116.190 165.763,117.037 166.407,117.341 166.644 C 117.644 166.882,123.206 171.056,129.700 175.922 C 152.595 193.073,159.491 198.352,159.491 198.724 C 159.491 198.950,155.801 203.980,153.601 206.751 C 153.059 207.434,152.160 208.584,151.603 209.308 C 147.554 214.566,137.236 226.194,134.855 228.181 C 133.230 229.538,117.407 237.682,116.947 237.398 C 116.768 237.287,116.621 237.341,116.621 237.519 C 116.621 237.696,115.763 238.235,114.714 238.717 C 113.665 239.199,112.686 239.758,112.540 239.960 C 112.364 240.201,112.269 240.203,112.262 239.964 C 112.255 239.740,112.148 239.748,111.984 239.985 C 111.759 240.309,101.341 245.709,92.191 250.245 L 89.740 251.460 88.557 250.626 C 87.907 250.168,87.212 249.654,87.012 249.485 C 86.365 248.936,77.996 243.071,75.658 241.528 C 74.410 240.703,73.388 239.891,73.388 239.723 C 73.388 239.556,73.229 239.419,73.035 239.419 C 72.539 239.419,69.391 237.161,69.391 236.806 C 69.391 236.644,69.236 236.512,69.046 236.512 C 68.630 236.512,63.812 233.203,63.639 232.799 C 63.573 232.644,63.300 232.516,63.034 232.516 C 62.767 232.516,62.495 232.386,62.428 232.228 C 62.361 232.070,61.694 231.566,60.945 231.108 C 60.195 230.651,59.582 230.117,59.582 229.922 C 59.582 229.726,59.430 229.661,59.244 229.776 C 59.058 229.891,58.809 229.828,58.691 229.637 C 58.573 229.446,56.641 228.022,54.397 226.472 C 52.154 224.922,48.274 222.203,45.777 220.430 C 43.279 218.658,40.908 216.975,40.509 216.692 C 40.109 216.409,37.902 214.861,35.604 213.253 C 33.306 211.644,31.181 210.129,30.881 209.886 C 30.581 209.642,29.478 208.896,28.429 208.226 C 27.380 207.557,26.521 206.862,26.521 206.683 C 26.521 206.504,26.359 206.358,26.161 206.358 C 25.694 206.358,21.072 203.036,21.072 202.701 C 21.072 202.561,22.012 202.075,23.161 201.621 C 24.310 201.167,25.911 200.505,26.720 200.150 C 27.528 199.795,28.427 199.453,28.718 199.389 C 29.008 199.325,29.347 199.135,29.471 198.965 C 29.595 198.796,30.126 198.633,30.652 198.602 C 31.177 198.572,31.607 198.444,31.607 198.319 C 31.608 198.193,32.629 197.714,33.878 197.253 C 35.127 196.793,36.510 196.187,36.950 195.906 C 37.391 195.626,37.923 195.502,38.131 195.630 C 38.340 195.759,38.510 195.704,38.510 195.508 C 38.510 195.312,39.124 194.956,39.873 194.717 C 40.622 194.478,42.026 193.892,42.993 193.416 C 43.960 192.939,44.901 192.642,45.082 192.754 C 45.264 192.866,45.413 192.821,45.413 192.653 C 45.413 192.254,47.608 191.429,48.010 191.677 C 48.180 191.782,48.320 191.718,48.320 191.533 C 48.320 191.211,51.623 189.779,51.912 189.975 C 51.990 190.028,52.153 189.931,52.275 189.760 C 52.636 189.255,54.522 188.529,54.886 188.754 C 55.071 188.869,55.223 188.802,55.223 188.606 C 55.223 188.411,56.081 187.972,57.130 187.632 C 58.179 187.292,59.566 186.695,60.211 186.306 C 60.857 185.917,61.552 185.701,61.755 185.827 C 61.959 185.953,62.125 185.915,62.125 185.743 C 62.125 185.570,62.984 185.125,64.033 184.754 C 65.082 184.382,66.498 183.784,67.179 183.425 C 67.861 183.066,68.555 182.857,68.723 182.961 C 68.891 183.064,69.028 182.994,69.028 182.804 C 69.028 182.491,70.486 181.905,71.390 181.855 C 71.589 181.844,71.835 181.748,71.935 181.643 C 72.035 181.538,72.852 181.151,73.751 180.783 C 74.650 180.415,75.998 179.797,76.747 179.408 C 77.495 179.020,78.272 178.803,78.473 178.927 C 78.673 179.051,78.837 179.010,78.837 178.835 C 78.837 178.661,79.941 178.132,81.290 177.661 C 82.639 177.189,83.824 176.685,83.924 176.540 C 84.024 176.395,84.432 176.219,84.832 176.149 C 85.232 176.079,85.640 175.932,85.740 175.822 C 86.002 175.534,91.648 173.245,92.189 173.208 C 92.439 173.190,92.643 173.053,92.643 172.902 C 92.643 172.626,94.770 172.009,95.277 172.138 C 95.427 172.176,95.550 172.061,95.550 171.883 C 95.550 171.705,95.977 171.452,96.499 171.321 C 97.021 171.190,98.442 170.609,99.656 170.031 C 100.870 169.453,101.996 169.062,102.158 169.162 C 102.320 169.262,102.452 169.188,102.452 168.998 C 102.452 168.808,102.865 168.549,103.370 168.422 C 103.875 168.296,105.214 167.768,106.346 167.251 C 107.478 166.733,108.577 166.280,108.789 166.244 C 109.000 166.207,109.545 165.974,109.998 165.724 C 110.452 165.475,110.983 165.370,111.179 165.491 C 111.375 165.612,111.535 165.551,111.535 165.356 C 111.535 165.043,113.024 164.321,113.830 164.243 C 113.993 164.227,114.726 164.664,115.458 165.213 " stroke="none" fill="#9e9ba4" fill-rule="evenodd"></path></g></svg>
