<?xml version="1.0" standalone="no"?>
<!DOCTYPE svg PUBLIC "-//W3C//DTD SVG 20010904//EN"
 "http://www.w3.org/TR/2001/REC-SVG-20010904/DTD/svg10.dtd">
<svg version="1.0" xmlns="http://www.w3.org/2000/svg"
 width="973.000000pt" height="973.000000pt" viewBox="0 0 973.000000 973.000000"
 preserveAspectRatio="xMidYMid meet">
<metadata>
Created by potrace 1.11, written by Peter Selinger 2001-2013
</metadata>
<g transform="translate(0.000000,973.000000) scale(0.100000,-0.100000)"
fill="#000000" stroke="none">
<path d="M1399 5660 c-150 -38 -328 -161 -458 -316 -66 -79 -212 -335 -270
-474 -89 -210 -282 -419 -388 -420 -12 0 -25 -4 -28 -10 -3 -5 -22 -10 -41
-10 -42 0 -101 -23 -131 -52 -23 -21 -64 -132 -59 -158 15 -84 60 -151 115
-171 51 -20 208 -10 291 18 116 38 202 96 297 197 61 65 173 216 173 232 0 3
8 18 19 32 19 28 83 145 133 242 78 153 213 345 294 420 151 139 306 99 486
-125 36 -44 76 -100 90 -125 14 -25 45 -79 70 -120 24 -41 71 -129 105 -195
90 -181 145 -259 257 -370 101 -100 198 -162 281 -181 17 -4 36 -12 44 -18 9
-7 69 -11 165 -11 122 0 162 4 206 19 133 46 210 100 332 236 105 116 178 230
314 497 63 125 121 231 128 237 7 6 24 27 37 46 41 61 116 127 180 159 182 91
375 -11 639 -334 225 -277 401 -402 620 -441 67 -12 235 -11 321 2 235 35 348
113 601 416 197 235 299 323 434 374 79 29 107 30 181 3 86 -32 151 -84 229
-184 43 -56 144 -225 193 -323 62 -124 168 -299 222 -367 64 -81 181 -193 254
-242 34 -22 94 -53 135 -68 67 -25 94 -28 255 -34 232 -9 1295 -10 1401 -1 61
5 88 12 113 30 46 32 71 91 70 165 0 72 -20 117 -71 158 l-38 30 -657 4 c-927
5 -928 5 -1013 65 -87 60 -138 126 -228 292 -227 423 -301 539 -409 649 -96
98 -172 154 -266 195 l-82 37 -165 0 c-155 0 -170 -2 -250 -29 -214 -72 -327
-161 -525 -411 -102 -129 -246 -271 -318 -314 -82 -48 -123 -60 -210 -61 -88
0 -153 22 -247 82 -57 37 -201 180 -285 283 -71 87 -221 240 -285 290 -71 55
-175 107 -270 136 -62 18 -99 22 -220 22 -132 1 -151 -2 -218 -26 -40 -14 -98
-40 -128 -58 -61 -34 -234 -193 -234 -214 0 -7 -4 -15 -9 -17 -9 -3 -123 -163
-134 -188 -4 -8 -18 -33 -30 -55 -144 -248 -177 -306 -177 -311 0 -8 -110
-176 -138 -209 -40 -49 -124 -114 -162 -125 -19 -6 -52 -16 -73 -22 -28 -9
-40 -9 -49 0 -7 7 -23 12 -35 12 -41 0 -102 39 -169 107 -35 36 -64 70 -64 75
0 5 -11 24 -24 41 -24 33 -106 177 -174 308 -125 239 -210 365 -317 473 -83
82 -171 140 -280 182 -60 23 -88 27 -195 30 -69 2 -141 -1 -161 -6z"/>
</g>
</svg>
